<svg xmlns="http://www.w3.org/2000/svg" viewBox="0 0 3619 440" fill="#100d0a">
  <path fill-rule="evenodd" d="M1545.0,427.0 C1547.8,424.2 1547.5,421.7 1544.0,418.0 C1541.1,414.9 1540.7,414.8 1534.7,415.2 C1529.5,415.6 1527.9,415.4 1524.5,413.4 C1522.3,412.1 1519.1,409.7 1517.5,408.0 C1513.8,404.1 1512.2,404.2 1508.1,408.5 C1506.3,410.4 1503.9,412.0 1502.7,412.0 C1501.5,412.0 1498.9,412.3 1496.9,412.6 C1494.3,413.1 1492.9,412.8 1491.6,411.5 C1489.5,409.4 1490.5,408.1 1495.2,406.5 L1498.5,405.5 L1498.1,391.5 L1497.8,377.5 L1494.4,374.0 C1489.1,368.4 1489.7,367.7 1499.2,368.4 C1525.3,370.2 1534.5,370.2 1542.3,368.5 C1551.2,366.5 1555.9,363.8 1558.1,359.1 C1559.9,355.2 1561.6,354.0 1565.2,354.0 C1567.7,354.0 1574.6,349.5 1579.7,344.6 C1583.9,340.6 1595.8,326.5 1597.9,323.0 C1600.1,319.4 1600.7,312.6 1599.0,311.5 C1596.7,310.1 1598.1,308.8 1601.4,309.4 C1604.4,310.0 1605.1,309.6 1607.9,306.5 C1612.1,301.7 1620.5,283.9 1622.5,275.4 C1623.5,271.6 1625.1,266.6 1626.1,264.2 C1628.7,258.4 1628.5,256.7 1625.0,254.7 C1620.6,252.0 1620.8,247.6 1625.4,245.3 C1629.9,243.2 1631.1,240.4 1629.7,235.2 C1628.9,232.1 1628.9,228.2 1629.8,220.2 C1631.2,207.2 1631.3,201.1 1630.1,193.9 C1629.5,190.9 1628.6,185.1 1628.0,181.0 C1626.3,169.0 1624.0,161.9 1621.6,161.0 C1620.4,160.6 1618.2,159.7 1616.6,159.1 L1613.6,157.9 L1616.4,155.3 C1618.8,153.1 1619.1,152.3 1618.5,148.6 C1617.4,142.1 1614.9,137.3 1605.9,124.4 C1596.6,111.0 1594.1,108.6 1589.3,108.6 C1586.1,108.6 1586.0,108.5 1586.0,104.5 C1586.0,99.9 1584.7,98.0 1581.5,98.0 C1578.3,98.0 1577.0,96.1 1577.0,91.5 C1577.0,87.5 1576.8,87.2 1572.8,85.4 C1570.4,84.4 1561.1,79.7 1552.0,74.9 C1538.3,67.6 1534.1,65.9 1527.1,64.6 C1516.2,62.5 1513.2,62.6 1508.7,65.0 C1505.2,66.9 1504.9,66.9 1504.3,65.3 C1503.8,64.1 1505.0,62.4 1508.5,59.2 L1513.4,54.8 L1511.6,50.2 C1509.3,44.3 1508.1,38.6 1508.0,33.7 C1508.0,30.2 1508.3,29.8 1511.7,28.4 C1517.5,25.9 1524.9,25.5 1529.3,27.4 C1531.4,28.2 1535.3,29.2 1537.9,29.6 C1542.5,30.2 1542.8,30.1 1545.4,26.7 C1547.5,24.0 1549.0,23.1 1552.4,22.6 C1555.7,22.1 1557.0,21.3 1557.8,19.5 C1559.3,16.2 1558.4,14.3 1554.7,12.3 C1550.9,10.4 1546.7,10.3 1525.0,11.8 C1510.7,12.8 1492.2,13.3 1478.5,13.1 C1476.3,13.0 1468.3,12.5 1460.8,12.0 C1446.7,11.0 1443.4,11.4 1439.8,14.7 C1436.9,17.3 1437.6,19.8 1441.6,21.5 C1444.7,22.8 1445.6,22.8 1448.7,21.5 C1453.5,19.5 1454.3,19.6 1456.1,22.8 C1457.3,25.0 1458.8,25.8 1463.6,26.8 C1466.8,27.4 1471.2,29.0 1473.3,30.3 L1477.2,32.7 L1483.6,29.3 C1487.1,27.4 1490.4,26.2 1491.0,26.5 C1492.8,27.6 1492.1,31.4 1489.4,35.3 C1486.4,39.8 1485.7,49.5 1488.0,54.7 C1489.3,57.7 1489.3,58.1 1487.5,59.5 C1485.5,61.0 1485.6,61.1 1488.4,63.4 C1490.0,64.7 1491.0,66.2 1490.6,66.8 C1490.3,67.3 1486.3,68.1 1481.9,68.5 C1477.3,68.9 1469.9,70.5 1465.1,72.2 C1460.4,73.8 1455.2,75.4 1453.5,75.9 C1451.8,76.4 1447.5,78.1 1443.7,79.9 C1440.0,81.6 1436.3,83.0 1435.4,83.0 C1432.9,83.0 1428.3,85.8 1423.0,90.5 C1420.2,93.0 1417.4,95.0 1416.8,95.0 C1414.8,95.0 1407.0,102.1 1407.0,104.0 C1407.0,105.0 1407.9,106.1 1408.9,106.5 C1410.0,106.8 1411.3,107.7 1412.0,108.5 C1414.0,111.0 1412.3,111.8 1407.5,110.8 C1400.9,109.4 1398.6,110.3 1396.5,115.1 C1395.4,117.3 1392.8,120.7 1390.6,122.5 C1387.2,125.3 1385.8,127.7 1382.1,137.0 C1379.7,143.1 1374.4,153.6 1370.4,160.3 C1366.3,167.0 1363.0,173.0 1363.0,173.5 C1363.0,174.1 1364.1,176.2 1365.5,178.2 C1368.4,182.4 1368.5,183.0 1366.7,183.0 C1364.4,183.0 1361.4,187.3 1359.7,193.0 C1358.8,196.0 1356.9,202.3 1355.5,207.0 C1350.2,224.6 1349.9,245.4 1355.0,252.2 C1356.6,254.4 1356.8,255.4 1356.0,256.9 C1355.5,258.0 1355.0,260.0 1355.0,261.4 C1355.0,266.5 1361.2,286.7 1365.3,295.0 C1368.9,302.3 1370.1,303.8 1373.8,305.9 C1377.7,308.0 1378.1,308.6 1377.7,311.0 C1376.6,316.2 1385.3,326.4 1402.0,339.4 C1415.6,350.0 1422.0,353.7 1428.3,354.9 C1431.2,355.4 1437.3,357.5 1441.9,359.4 C1451.1,363.3 1450.1,363.3 1456.5,358.6 C1458.6,357.0 1461.0,358.7 1461.0,361.8 C1461.0,364.1 1461.6,365.0 1463.8,365.9 C1466.5,367.0 1471.8,367.4 1475.5,366.8 C1477.0,366.6 1477.4,367.0 1477.2,368.5 C1477.1,369.6 1476.5,375.2 1476.0,381.0 C1475.4,386.8 1474.5,393.4 1473.9,395.7 C1472.9,399.4 1473.0,400.2 1474.9,402.6 C1476.0,404.0 1476.7,405.6 1476.4,406.1 C1475.5,407.5 1468.6,407.1 1466.4,405.5 C1463.4,403.2 1459.0,403.7 1452.0,407.2 C1446.6,409.8 1444.5,410.3 1439.6,410.2 C1432.1,409.9 1430.3,410.5 1428.5,414.0 C1426.3,418.3 1426.6,419.8 1430.2,422.0 C1433.0,423.7 1435.3,424.0 1445.0,424.0 C1451.3,424.0 1466.8,424.7 1479.5,425.5 C1492.2,426.3 1507.5,427.0 1513.5,427.1 C1519.5,427.1 1526.8,427.5 1529.5,428.0 C1538.8,429.4 1542.8,429.2 1545.0,427.0 Z M3515.8,421.0 C3521.4,419.7 3528.7,416.6 3538.8,411.4 C3546.9,407.3 3554.1,403.3 3554.9,402.5 C3556.0,401.4 3555.6,400.5 3552.5,397.1 C3550.4,394.8 3549.0,392.7 3549.3,392.4 C3549.6,392.1 3552.1,393.0 3555.0,394.5 C3557.8,395.9 3560.9,396.8 3561.8,396.5 C3562.7,396.2 3566.0,392.8 3569.0,388.8 C3572.0,384.9 3578.3,377.1 3583.0,371.5 C3595.6,356.6 3600.0,350.6 3600.0,348.7 C3600.0,348.5 3598.7,346.6 3597.0,344.5 C3595.3,342.4 3594.0,340.4 3594.0,340.0 C3594.0,339.6 3595.9,338.9 3598.2,338.4 C3602.0,337.6 3602.6,337.1 3603.8,333.5 C3605.3,329.1 3608.0,307.3 3608.0,299.7 C3608.0,291.9 3605.1,280.0 3601.4,273.1 C3599.5,269.6 3598.0,265.8 3598.0,264.6 C3598.0,259.5 3596.9,258.2 3591.8,257.0 C3587.8,256.0 3587.0,255.4 3587.6,254.1 C3589.6,249.3 3589.2,248.1 3583.7,241.9 C3580.6,238.5 3576.4,233.1 3574.4,230.0 C3571.5,225.3 3568.9,223.0 3561.6,218.3 C3551.1,211.4 3550.7,211.2 3533.6,206.5 C3526.6,204.5 3516.7,201.0 3511.6,198.8 C3502.3,194.6 3499.1,194.1 3488.0,195.0 C3484.4,195.3 3482.8,194.9 3480.1,193.0 C3477.0,190.6 3476.3,190.5 3465.6,190.9 C3452.6,191.5 3443.0,191.4 3434.1,190.8 C3429.1,190.5 3427.4,189.9 3426.0,188.2 C3425.0,187.0 3422.4,185.4 3420.2,184.7 C3411.5,181.7 3404.0,172.7 3404.0,165.4 C3404.0,163.3 3403.4,162.2 3401.8,161.5 C3399.3,160.4 3399.3,160.8 3400.3,128.5 C3400.8,114.5 3401.2,113.0 3405.9,105.5 C3409.3,100.1 3409.7,97.8 3407.5,96.0 C3405.0,93.9 3405.7,92.0 3408.8,92.6 C3410.8,93.0 3413.9,91.9 3420.5,88.4 C3425.4,85.9 3429.8,83.3 3430.1,82.8 C3430.5,82.2 3435.0,80.3 3440.1,78.5 C3445.3,76.7 3451.8,74.3 3454.5,73.2 C3462.7,69.8 3490.2,64.0 3498.3,64.0 C3504.2,64.0 3506.2,61.4 3506.4,53.5 C3506.5,45.8 3503.8,42.4 3498.0,42.7 C3495.7,42.8 3490.4,44.0 3486.2,45.4 C3481.9,46.8 3474.2,48.8 3469.0,49.9 C3458.4,52.1 3430.5,54.4 3426.6,53.4 C3424.1,52.8 3422.1,54.3 3417.2,60.4 C3416.5,61.3 3414.4,62.0 3412.5,62.0 C3407.8,62.0 3406.0,62.9 3406.0,65.2 C3406.0,66.7 3405.6,67.0 3404.2,66.4 C3403.3,66.0 3400.8,65.5 3398.8,65.2 C3395.3,64.8 3394.9,65.1 3391.8,69.5 C3390.0,72.1 3386.1,77.2 3383.2,80.7 C3380.4,84.3 3378.0,87.7 3378.0,88.4 C3378.0,89.1 3379.1,91.1 3380.5,93.0 C3383.3,96.8 3382.8,97.9 3377.8,98.9 C3373.4,99.8 3373.0,102.4 3376.9,104.5 C3381.0,106.6 3380.8,107.7 3376.0,109.1 C3370.0,110.9 3369.1,112.4 3369.0,121.5 C3368.9,125.9 3368.1,132.4 3367.2,135.9 C3365.8,141.8 3365.8,143.0 3367.3,148.9 C3368.2,152.6 3369.4,159.1 3370.1,163.5 C3371.7,175.3 3372.8,177.3 3378.2,178.7 C3382.7,179.9 3382.7,180.0 3382.6,184.1 C3382.6,187.2 3383.0,188.6 3384.4,189.4 C3391.2,193.4 3396.1,196.9 3399.7,200.2 C3402.1,202.3 3404.6,204.0 3405.4,204.0 C3406.2,204.0 3408.5,202.4 3410.5,200.4 C3412.5,198.5 3414.3,197.0 3414.4,197.2 C3414.6,197.4 3415.5,199.8 3416.6,202.5 C3418.6,208.1 3419.7,209.2 3422.2,208.4 C3423.2,208.1 3427.0,208.7 3430.7,209.7 C3436.1,211.1 3440.6,211.4 3452.6,211.2 L3467.7,211.0 L3473.0,214.6 L3478.2,218.2 L3491.4,218.4 C3502.3,218.5 3505.3,218.9 3509.0,220.6 C3513.9,222.8 3524.2,230.3 3527.5,234.0 C3530.9,237.7 3532.7,238.2 3536.1,236.4 C3538.6,235.1 3539.8,235.0 3541.7,235.9 C3543.8,236.9 3544.1,237.5 3543.6,239.8 C3543.2,241.3 3542.8,242.9 3542.7,243.5 C3542.6,244.1 3546.0,247.9 3550.3,252.0 C3557.2,258.6 3558.6,259.5 3562.8,260.0 C3567.4,260.5 3567.5,260.6 3567.2,263.9 C3566.9,267.7 3569.2,271.0 3572.2,271.0 C3574.5,271.0 3574.5,272.2 3572.1,274.4 C3569.5,276.8 3569.0,280.4 3570.5,286.9 C3574.2,302.9 3574.2,303.2 3572.0,316.0 C3570.7,323.9 3570.3,328.6 3570.9,329.8 C3571.4,330.7 3573.9,333.0 3576.4,334.9 C3578.9,336.8 3581.0,338.4 3581.0,338.5 C3581.0,338.6 3577.8,338.6 3573.8,338.6 C3566.7,338.5 3566.6,338.5 3564.7,341.8 L3562.7,345.1 L3565.5,348.0 L3568.2,350.8 L3564.2,350.3 C3560.5,349.8 3560.1,350.0 3558.6,352.8 C3557.7,354.5 3554.8,358.9 3552.0,362.5 C3547.0,369.1 3546.1,371.3 3548.0,372.5 C3550.5,374.0 3548.8,375.1 3545.0,374.5 C3541.1,373.8 3541.0,373.9 3530.6,383.8 C3521.7,392.3 3519.1,394.2 3513.2,396.4 C3509.4,397.9 3505.4,400.0 3504.5,401.0 C3503.5,402.1 3501.4,403.0 3499.8,403.0 C3498.2,403.0 3494.4,403.8 3491.2,404.9 C3487.7,406.1 3481.4,407.0 3474.5,407.3 C3462.6,407.8 3457.9,409.2 3454.1,413.3 C3447.8,420.2 3456.5,422.7 3486.5,422.9 C3504.3,423.0 3508.8,422.7 3515.8,421.0 Z M2915.9,410.7 C2924.7,406.9 2925.7,406.1 2927.7,402.2 C2930.6,396.3 2931.9,395.0 2934.4,395.0 C2935.5,395.0 2938.5,393.6 2941.0,391.9 C2948.0,387.2 2953.9,384.4 2961.7,382.1 C2969.6,379.7 2972.0,377.5 2972.0,372.4 C2972.0,368.3 2969.5,366.2 2963.0,365.0 C2960.1,364.4 2957.1,363.5 2956.4,362.9 C2954.0,360.9 2952.0,352.7 2952.0,344.8 C2952.0,340.4 2951.5,336.1 2950.8,335.0 C2949.8,333.5 2949.9,332.8 2951.2,331.3 C2952.4,329.8 2952.7,326.3 2952.9,311.5 C2952.9,301.6 2952.7,292.7 2952.4,291.7 C2952.1,290.8 2950.3,289.3 2948.4,288.5 C2943.6,286.5 2943.3,284.7 2947.0,280.0 L2950.3,275.9 L2949.8,265.7 C2949.3,255.4 2948.1,251.0 2945.6,251.0 C2944.8,251.0 2943.7,250.4 2943.1,249.6 C2941.3,247.5 2943.7,243.4 2947.7,241.5 C2950.9,239.9 2951.2,239.6 2950.4,236.7 C2950.0,234.9 2949.6,227.0 2949.5,219.0 C2949.4,209.9 2948.9,203.7 2948.1,202.2 C2946.8,199.7 2947.6,197.6 2950.8,194.9 C2952.5,193.4 2952.8,191.4 2953.4,177.4 C2953.7,168.6 2953.6,159.9 2953.2,158.0 C2952.4,154.7 2952.2,154.5 2948.4,154.7 C2945.3,154.8 2944.1,154.4 2943.1,152.8 C2942.0,151.0 2942.1,150.4 2944.4,148.3 C2945.8,147.0 2948.8,142.2 2951.1,137.7 C2953.3,133.2 2956.1,128.5 2957.3,127.2 L2959.4,125.0 L2957.3,120.7 C2953.6,113.1 2952.7,107.6 2953.2,95.9 L2953.7,84.9 L2950.9,83.4 C2949.3,82.6 2947.0,82.0 2945.5,82.0 C2939.0,82.0 2947.2,76.2 2955.0,75.3 C2960.0,74.7 2960.1,74.6 2962.7,69.3 C2964.1,66.3 2967.7,61.4 2970.7,58.4 C2975.6,53.4 2976.0,52.6 2975.2,50.2 C2973.9,46.2 2970.9,46.4 2963.0,51.1 C2954.5,56.1 2949.8,57.9 2944.6,58.0 C2941.3,58.0 2939.9,58.8 2935.1,63.3 C2931.5,66.8 2926.5,70.1 2920.9,72.7 C2912.7,76.7 2906.0,81.3 2906.0,83.1 C2906.0,84.8 2910.7,86.4 2916.2,86.5 C2919.3,86.5 2922.2,86.9 2922.6,87.3 C2923.0,87.7 2922.6,90.2 2921.7,92.8 C2919.5,99.0 2918.0,111.1 2918.0,121.9 C2918.0,128.6 2918.4,131.5 2920.0,134.5 C2921.7,137.8 2921.9,138.9 2920.8,140.8 C2919.9,142.6 2919.9,144.1 2920.9,147.9 C2922.0,152.2 2921.9,153.2 2920.5,155.3 C2919.1,157.5 2919.1,158.9 2920.1,167.1 C2921.3,176.9 2920.7,208.4 2919.1,215.0 C2918.0,219.8 2918.6,220.8 2922.6,221.6 C2927.4,222.5 2927.6,223.5 2924.0,227.2 C2921.3,229.8 2920.9,230.8 2921.5,233.4 C2924.7,248.6 2926.0,296.3 2924.0,320.0 C2922.8,333.6 2919.7,351.8 2917.5,358.0 L2916.0,362.4 L2919.6,366.1 L2923.2,369.8 L2919.2,374.2 C2917.0,376.6 2914.8,379.9 2914.4,381.5 C2911.8,391.9 2906.1,399.9 2898.1,404.2 C2894.3,406.3 2894.0,409.7 2897.2,413.4 C2900.1,416.8 2902.8,416.4 2915.9,410.7 Z M3444.8,413.2 C3445.8,406.4 3438.6,399.4 3426.7,395.4 C3413.3,390.9 3408.6,388.7 3403.8,384.5 C3398.3,379.6 3393.2,370.3 3392.4,363.5 C3392.1,360.8 3390.3,355.3 3388.4,351.3 C3385.4,345.2 3384.6,342.1 3383.8,333.2 C3383.0,325.6 3382.2,321.8 3380.8,320.1 C3378.5,317.0 3378.5,315.4 3381.0,314.7 C3383.2,314.1 3384.9,310.5 3385.7,305.0 C3386.3,300.8 3380.9,288.6 3377.8,286.9 C3374.7,285.2 3369.4,286.7 3366.7,290.0 C3363.9,293.2 3362.2,301.6 3363.9,303.3 C3365.7,305.1 3365.1,308.7 3362.8,310.3 C3360.6,311.7 3360.5,312.4 3360.6,322.1 C3360.8,339.6 3365.8,356.1 3375.2,370.7 C3379.0,376.5 3380.4,377.8 3383.1,378.4 C3387.1,379.2 3396.3,388.5 3399.1,394.5 C3402.5,402.1 3408.0,405.9 3424.9,412.6 C3431.6,415.2 3434.7,415.9 3439.0,415.7 C3443.9,415.5 3444.5,415.3 3444.8,413.2 Z M728.8,410.4 C732.1,409.5 731.5,407.4 727.3,405.3 C725.2,404.3 723.0,402.4 722.4,401.1 C721.3,399.0 721.6,398.4 724.9,395.0 C726.9,392.9 730.7,387.7 733.3,383.4 C736.0,379.0 739.5,373.3 741.2,370.7 C743.4,367.3 744.5,364.3 744.8,360.5 L745.2,355.0 L749.0,355.0 C753.5,355.0 754.4,354.0 756.9,346.8 C757.9,343.9 759.7,339.5 760.9,337.2 C762.1,334.8 763.0,331.2 763.0,328.5 C763.0,325.3 763.5,323.8 764.6,323.3 C766.2,322.7 767.9,319.3 775.2,302.0 C777.4,296.8 780.7,289.1 782.5,285.0 C784.3,280.9 787.7,273.0 790.0,267.5 C792.3,262.0 794.6,257.1 795.1,256.5 C797.6,253.9 793.4,242.0 787.8,236.0 C785.0,233.0 783.0,234.9 783.0,240.7 C783.0,245.2 775.9,262.9 769.1,275.0 C767.4,278.0 766.0,281.4 766.0,282.6 C766.0,283.8 764.3,286.7 762.1,289.1 C758.0,293.8 753.6,301.2 743.0,321.0 C739.3,327.9 735.1,335.7 733.6,338.5 C732.1,341.2 731.2,344.1 731.5,344.9 C731.8,345.7 730.7,347.7 728.8,349.7 C725.8,352.8 721.9,359.0 712.3,376.1 C710.2,379.8 707.5,383.4 706.1,384.1 C704.8,384.9 703.2,387.1 702.6,389.0 C701.8,391.3 700.9,392.4 700.0,392.1 C697.2,391.4 694.3,392.0 688.7,394.5 C685.6,395.8 681.2,397.3 679.1,397.6 C673.4,398.5 669.0,401.5 669.0,404.4 C669.0,409.0 670.5,409.3 695.5,409.5 C708.5,409.6 719.3,410.0 719.7,410.3 C720.5,411.2 725.7,411.2 728.8,410.4 Z M920.4,403.3 C922.1,402.4 924.7,402.0 926.9,402.3 C940.6,404.3 949.2,404.9 961.4,404.9 L975.3,404.8 L978.2,401.9 C980.7,399.5 981.1,398.5 980.5,395.7 C979.8,392.1 975.8,388.0 973.0,388.0 C968.8,388.0 959.5,384.9 955.2,382.0 C952.7,380.4 950.3,379.0 949.9,379.0 C949.6,379.0 948.7,377.6 947.9,375.8 C947.2,374.1 945.0,370.8 943.1,368.6 C941.1,366.3 937.3,361.2 934.7,357.3 C928.7,348.4 927.2,347.1 922.4,346.3 C916.7,345.4 916.1,344.7 917.3,340.0 C918.4,336.2 918.3,335.9 914.2,331.3 C905.2,321.0 898.2,311.8 892.1,302.0 C888.6,296.4 884.8,291.4 883.6,291.0 C882.5,290.5 879.4,289.9 876.9,289.5 C872.9,289.0 872.1,288.5 870.1,284.9 L867.8,281.0 L870.0,276.5 C872.4,271.5 872.2,270.7 867.9,268.5 C865.7,267.3 865.0,266.2 865.0,264.0 C865.0,261.2 862.7,257.8 856.3,251.0 C853.7,248.3 850.2,242.6 840.8,226.0 C830.0,207.1 830.9,208.0 824.5,208.7 C818.9,209.3 817.6,208.4 820.5,206.0 C821.3,205.4 822.9,202.3 824.0,199.3 C826.4,192.9 830.1,184.4 833.2,178.4 C835.2,174.5 835.2,173.0 833.5,167.3 C832.9,165.5 833.4,164.9 836.2,163.7 C840.1,162.1 838.9,164.3 855.1,128.7 C858.3,121.7 862.3,114.7 864.8,111.7 C869.1,106.7 869.4,105.4 867.9,100.1 C867.6,99.3 869.0,98.2 871.5,97.3 C875.0,96.1 876.2,94.8 880.7,87.0 C883.6,82.1 888.9,74.1 892.5,69.2 C896.1,64.3 899.0,59.6 899.0,58.7 C899.0,57.9 897.3,55.8 895.2,54.2 C892.3,51.8 891.8,50.9 892.7,49.9 C894.4,48.2 899.8,48.6 903.7,50.7 C906.8,52.4 907.2,52.4 913.2,50.6 C916.7,49.6 921.8,48.5 924.5,48.0 C933.6,46.6 938.0,45.0 939.6,42.5 C942.1,38.6 940.0,36.0 934.2,35.9 C916.3,35.4 872.3,36.4 871.3,37.2 C869.8,38.4 870.6,42.7 872.6,45.1 C875.2,48.1 873.8,55.8 869.5,62.0 C868.0,64.1 866.5,68.2 866.0,71.6 C865.2,76.4 864.4,78.0 861.6,80.5 C859.4,82.4 855.5,88.6 851.0,97.5 C837.2,124.1 830.8,136.5 829.9,137.6 C829.4,138.2 828.6,141.0 827.9,143.9 C826.8,149.0 826.3,149.8 822.8,152.3 C821.8,153.0 818.4,158.6 815.1,164.9 L809.2,176.3 L807.1,172.2 C804.6,167.3 802.5,166.0 797.3,166.0 C790.9,166.0 790.1,164.6 794.9,161.5 C797.1,160.0 799.0,158.4 799.0,157.9 C799.0,157.4 797.5,154.2 795.6,150.8 C793.8,147.3 791.4,142.3 790.5,139.7 C789.3,136.5 787.4,133.9 785.1,132.2 C780.4,128.7 780.0,128.1 780.0,124.5 C780.0,120.9 771.3,96.5 767.1,88.1 C764.1,82.2 762.5,81.0 755.0,79.0 C750.8,77.9 750.8,77.8 751.4,74.0 L752.0,70.2 L745.7,66.5 L739.5,62.9 L750.3,63.3 C762.9,63.7 763.6,63.3 761.3,56.3 C758.7,48.8 751.6,46.9 726.5,47.2 C717.1,47.3 701.0,47.3 690.5,47.2 C672.2,47.1 671.5,47.1 669.2,49.3 C666.4,52.0 666.8,55.7 670.5,60.5 C673.2,64.1 682.5,69.0 691.2,71.5 C694.4,72.4 698.7,74.6 701.0,76.5 C703.9,78.9 706.2,80.0 708.4,80.0 C711.9,80.0 717.9,81.7 719.5,83.1 C720.0,83.7 720.0,84.4 719.2,85.2 C717.9,86.5 721.9,94.4 727.5,101.5 C730.7,105.5 747.4,130.3 749.7,134.3 C750.4,135.5 752.1,139.3 753.6,142.7 C755.0,146.1 757.1,149.7 758.1,150.6 C759.2,151.5 760.0,153.6 760.0,155.1 C760.0,157.1 761.2,159.1 764.4,162.1 C767.2,164.6 769.5,167.9 770.4,170.7 C772.2,176.1 776.8,183.1 785.8,194.5 C789.5,199.1 793.9,205.0 795.5,207.6 C797.1,210.2 800.6,215.6 803.2,219.4 C811.2,231.5 814.7,237.5 816.0,241.6 C816.7,243.7 818.0,246.4 819.0,247.5 C820.0,248.6 821.0,251.2 821.3,253.3 C822.1,258.4 823.5,259.9 828.1,260.6 C831.1,261.1 832.2,261.8 832.6,263.6 C832.9,264.8 832.9,266.3 832.6,266.9 C831.1,269.2 839.9,286.1 848.7,298.0 C858.0,310.5 860.0,313.6 860.0,315.3 C860.0,318.1 862.9,323.1 867.4,328.1 C869.6,330.6 872.3,334.1 873.2,335.8 C874.1,337.6 876.5,339.9 878.4,341.1 C881.8,343.1 885.0,348.8 885.0,353.0 C885.0,354.2 885.9,355.2 887.5,355.6 C891.5,356.6 892.2,358.2 890.4,362.6 C888.9,366.1 888.9,366.6 890.4,369.1 C891.3,370.6 892.0,372.5 892.0,373.3 C892.0,374.8 896.6,379.3 899.2,380.3 C901.2,381.2 893.4,387.8 889.6,388.5 C883.9,389.7 883.4,390.0 881.1,394.1 C878.4,398.8 878.9,402.6 882.3,404.0 C886.0,405.5 917.0,404.9 920.4,403.3 Z M2798.8,401.8 C2801.7,401.1 2804.0,399.6 2806.0,397.2 C2808.7,394.0 2809.1,393.8 2813.0,394.4 C2817.8,395.2 2824.6,393.6 2827.5,391.0 C2828.6,390.1 2832.2,388.1 2835.5,386.6 C2843.7,382.9 2856.3,374.7 2863.7,368.3 C2872.0,361.0 2881.0,354.1 2890.2,347.9 C2897.5,343.0 2898.0,342.5 2898.6,338.1 C2899.8,330.5 2899.6,319.7 2898.3,319.3 C2897.7,319.1 2895.7,320.9 2893.8,323.2 C2890.0,328.3 2878.1,339.3 2873.0,342.5 C2871.1,343.7 2866.4,347.5 2862.6,350.9 C2858.0,355.1 2852.6,358.7 2846.1,361.9 C2836.6,366.5 2836.0,366.7 2824.5,367.4 C2812.1,368.1 2807.3,369.7 2805.0,374.1 C2803.6,376.6 2802.0,376.5 2802.0,374.1 C2802.0,369.9 2800.9,369.0 2796.1,369.0 C2791.2,369.0 2783.4,366.2 2771.2,360.2 C2762.3,355.8 2761.3,354.7 2755.9,344.0 C2753.6,339.3 2750.4,333.7 2748.8,331.5 C2745.3,326.5 2744.1,322.7 2743.1,312.5 C2742.4,306.7 2741.7,304.3 2740.5,303.5 C2734.9,300.2 2734.7,299.8 2737.5,295.7 C2740.0,292.2 2740.0,291.7 2739.0,285.7 C2738.4,282.3 2737.2,276.6 2736.3,273.0 C2734.4,264.9 2733.9,245.2 2735.7,244.6 C2736.6,244.2 2736.8,240.9 2736.3,231.3 C2735.7,218.1 2737.0,200.7 2739.2,192.6 C2740.1,189.0 2740.1,187.3 2739.2,184.7 C2738.2,181.9 2738.4,180.1 2741.0,171.5 C2742.6,166.0 2744.8,159.1 2745.9,156.2 C2748.3,150.2 2748.5,147.0 2746.8,142.4 C2745.8,139.6 2745.9,138.8 2747.1,137.3 C2748.0,136.3 2751.3,130.3 2754.4,124.0 C2757.6,117.7 2761.6,110.3 2763.3,107.7 C2765.6,104.0 2766.5,101.2 2766.9,96.2 C2767.3,91.8 2768.3,88.4 2769.6,86.5 C2773.4,81.0 2780.0,68.4 2780.0,66.4 C2780.0,65.4 2779.5,62.8 2778.9,60.7 C2778.1,57.8 2777.4,57.0 2775.5,57.0 C2773.2,57.0 2741.0,73.0 2737.8,75.7 C2736.9,76.5 2735.9,78.2 2735.6,79.5 C2734.9,82.1 2728.5,86.1 2718.8,90.0 C2712.5,92.6 2711.5,93.9 2713.1,97.4 C2715.0,101.5 2722.1,102.2 2728.8,99.0 C2731.0,97.9 2733.6,97.0 2734.5,97.0 C2737.0,97.0 2736.2,100.6 2733.1,103.2 C2728.8,106.9 2728.3,108.5 2727.7,120.6 C2727.1,130.6 2727.3,131.9 2729.2,135.0 C2730.3,136.9 2730.8,138.6 2730.4,138.7 C2727.2,139.8 2722.8,143.4 2722.0,145.6 C2720.2,150.3 2717.0,172.3 2717.0,180.1 C2717.0,184.4 2716.1,192.5 2715.0,198.3 L2712.9,208.7 L2716.1,213.9 L2719.3,219.0 L2716.7,221.8 C2713.3,225.4 2712.0,229.0 2711.0,238.0 C2710.5,242.1 2709.4,248.4 2708.5,252.0 C2706.1,261.2 2705.7,269.1 2706.8,279.4 C2707.7,287.3 2708.1,288.6 2710.4,290.3 C2713.6,292.6 2713.6,293.1 2710.8,298.6 C2708.7,302.9 2708.7,302.9 2710.4,316.2 C2712.9,335.2 2714.8,341.0 2718.7,341.0 C2719.7,341.0 2719.9,341.6 2719.4,343.2 C2717.1,350.5 2720.1,358.0 2730.4,370.8 C2736.4,378.2 2737.4,379.0 2740.5,379.0 C2743.9,379.0 2744.0,379.1 2744.0,383.1 C2744.0,386.4 2744.6,387.7 2747.6,390.5 C2751.4,394.1 2760.3,398.0 2764.6,398.0 C2766.1,398.0 2768.4,396.8 2770.1,395.1 C2773.0,392.2 2773.6,392.6 2772.1,396.5 C2771.2,398.6 2772.4,402.0 2774.0,402.0 C2774.5,402.0 2776.8,399.3 2779.0,396.0 C2781.2,392.7 2783.3,390.0 2783.6,390.0 C2783.9,390.0 2783.8,392.7 2783.4,395.9 C2783.1,399.2 2783.0,402.2 2783.4,402.8 C2784.0,403.9 2792.7,403.4 2798.8,401.8 Z M2072.8,394.0 C2076.6,390.4 2078.2,387.3 2077.5,384.8 C2076.7,382.5 2076.8,382.5 2078.8,384.4 C2080.0,385.4 2081.2,387.5 2081.5,389.1 C2082.3,392.5 2083.1,393.1 2088.5,394.1 C2090.7,394.6 2093.7,395.2 2095.2,395.6 C2097.4,396.1 2098.4,395.6 2100.8,393.1 C2103.3,390.3 2103.8,390.1 2105.0,391.5 C2106.6,393.4 2109.9,393.4 2116.4,391.6 C2119.2,390.8 2128.2,388.9 2136.5,387.5 C2144.8,386.0 2152.6,384.6 2153.9,384.4 C2155.3,384.1 2157.8,382.3 2159.6,380.5 C2162.5,377.4 2162.9,377.2 2164.9,378.6 C2167.5,380.5 2171.8,379.3 2177.0,375.5 C2178.8,374.2 2182.6,372.3 2185.4,371.4 C2188.2,370.5 2198.0,364.7 2207.2,358.6 C2223.2,348.0 2224.0,347.3 2224.0,344.2 C2224.0,341.0 2224.0,341.0 2228.0,341.6 C2231.8,342.2 2232.2,342.0 2237.2,337.2 C2252.4,322.5 2255.7,319.0 2258.5,314.9 C2260.1,312.5 2263.1,308.6 2265.1,306.4 C2270.8,300.0 2272.3,296.5 2271.5,291.4 C2270.9,287.5 2271.1,287.0 2272.9,287.0 C2273.9,287.0 2275.0,287.5 2275.2,288.2 C2276.1,290.7 2278.9,287.9 2280.5,282.8 C2282.6,276.6 2288.8,263.8 2292.5,258.5 C2293.9,256.4 2295.0,254.2 2295.0,253.6 C2295.0,252.9 2293.0,250.2 2290.5,247.5 L2286.0,242.5 L2290.6,242.0 C2295.3,241.5 2295.3,241.5 2296.6,236.5 C2297.3,233.8 2298.8,229.0 2300.0,226.0 C2301.2,223.1 2301.9,219.9 2301.7,219.0 C2301.5,218.2 2301.9,209.9 2302.6,200.5 C2303.4,189.4 2303.5,183.2 2302.9,182.4 C2302.4,181.7 2298.0,180.9 2293.1,180.5 C2288.3,180.1 2283.8,179.5 2283.1,179.1 C2282.5,178.7 2285.8,177.4 2290.6,176.2 C2295.4,175.0 2299.8,173.6 2300.3,173.1 C2300.9,172.5 2299.6,167.5 2297.0,159.8 C2291.9,145.0 2290.1,141.4 2285.8,136.9 C2284.0,135.0 2279.9,130.0 2276.7,125.7 C2273.0,120.9 2268.0,115.8 2263.0,112.0 C2252.4,103.9 2251.2,103.5 2246.5,105.4 C2241.9,107.4 2241.3,107.0 2243.5,103.6 C2245.9,100.0 2244.8,97.8 2237.6,92.2 C2228.7,85.2 2225.3,83.5 2222.4,84.9 C2220.5,85.7 2220.0,85.7 2220.0,84.5 C2220.0,83.7 2218.9,82.0 2217.5,80.8 C2216.1,79.6 2215.0,78.1 2215.0,77.4 C2215.0,75.1 2209.1,71.2 2203.9,70.1 C2201.0,69.5 2194.1,67.1 2188.6,64.9 C2176.2,59.9 2160.0,56.2 2148.0,55.6 C2146.1,55.5 2143.2,54.5 2141.5,53.3 C2139.8,52.1 2136.0,50.7 2133.0,50.1 C2123.7,48.3 2085.6,45.2 2064.8,44.5 C2045.5,43.9 2045.2,43.9 2043.7,46.0 C2042.7,47.4 2040.9,48.3 2038.8,48.4 C2037.0,48.6 2032.8,49.4 2029.5,50.3 C2026.3,51.3 2020.0,52.0 2015.5,52.0 C2004.7,52.0 2002.6,53.2 2002.2,59.2 C2001.7,66.5 2003.6,67.2 2023.9,68.2 C2033.0,68.7 2041.2,69.3 2042.0,69.6 C2043.0,70.0 2041.6,71.1 2038.1,72.6 L2032.6,75.1 L2038.2,80.8 C2042.2,84.9 2044.3,88.0 2045.5,91.8 C2047.3,97.5 2049.1,99.1 2055.8,101.1 C2061.1,102.6 2061.2,105.2 2055.9,106.0 C2054.0,106.4 2050.8,107.9 2048.8,109.5 L2045.2,112.3 L2045.2,130.4 C2045.2,144.5 2045.5,149.6 2046.8,153.2 C2048.3,157.6 2048.2,158.1 2046.7,159.8 C2044.3,162.4 2044.6,163.7 2047.9,166.8 C2049.9,168.7 2050.9,170.8 2051.3,173.8 C2051.8,177.8 2051.7,178.0 2049.3,178.0 C2047.9,178.0 2045.2,179.0 2043.3,180.1 C2040.0,182.2 2039.3,182.2 2028.2,181.2 C2020.6,180.4 2014.9,180.4 2012.0,181.0 C2009.5,181.5 2005.2,181.9 2002.5,182.0 C1997.1,182.0 1991.0,184.9 1991.0,187.4 C1991.0,188.1 1991.7,190.4 1992.5,192.4 C1994.3,196.6 1996.1,197.5 2006.0,199.1 C2011.9,200.1 2013.5,200.0 2017.0,198.6 C2020.7,197.1 2021.7,197.1 2026.8,198.4 C2030.7,199.4 2035.9,199.7 2042.9,199.4 C2051.2,199.1 2053.1,199.2 2052.3,200.2 C2050.5,202.4 2050.0,219.1 2051.5,222.7 C2052.8,225.9 2052.8,226.0 2050.3,226.6 C2048.8,227.0 2046.4,226.6 2044.4,225.6 C2039.9,223.5 2037.1,223.6 2033.5,226.0 C2031.1,227.6 2029.0,228.0 2023.0,227.9 C2017.2,227.8 2014.5,228.2 2011.5,229.7 C2009.3,230.8 2005.8,232.3 2003.7,233.0 C1997.3,235.0 1995.2,240.8 1999.9,243.7 C2000.9,244.3 2007.1,245.4 2013.7,246.1 C2024.2,247.1 2026.3,247.0 2031.4,245.6 C2036.1,244.2 2037.7,244.1 2040.4,245.1 C2042.8,246.0 2044.8,246.0 2047.6,245.3 C2049.8,244.7 2052.2,244.1 2053.0,243.9 C2054.1,243.6 2054.3,244.4 2054.1,247.3 C2053.9,250.7 2054.1,251.2 2056.9,252.1 C2060.5,253.4 2060.6,253.6 2058.2,257.1 C2056.8,259.4 2056.5,262.0 2056.7,275.1 C2056.8,287.8 2056.5,290.9 2055.2,293.0 C2053.9,295.0 2053.6,297.7 2053.8,306.0 C2054.2,318.8 2051.7,341.6 2048.8,352.6 L2046.7,360.8 L2049.3,364.1 C2050.7,366.0 2052.7,368.3 2053.5,369.3 C2056.9,373.1 2054.9,373.8 2041.3,373.9 C2034.3,374.0 2027.1,374.5 2025.3,375.1 C2021.6,376.3 2018.7,381.6 2018.6,387.5 L2018.5,391.5 L2036.0,392.0 C2045.6,392.3 2054.1,392.9 2054.9,393.4 C2056.1,394.2 2063.0,395.4 2069.1,395.9 C2069.9,395.9 2071.6,395.1 2072.8,394.0 Z M50.3,390.6 C51.5,389.8 54.4,388.6 56.8,387.9 C62.1,386.4 63.5,384.5 66.1,375.5 C67.2,371.6 69.1,365.9 70.2,362.7 C71.8,358.2 72.0,356.7 71.1,355.6 C69.7,353.9 70.3,317.1 72.1,286.6 C72.7,276.7 73.3,247.9 73.4,222.6 C73.5,181.4 73.7,176.0 75.3,172.1 C76.8,168.2 77.0,163.3 77.0,125.6 C77.0,92.5 77.3,82.3 78.4,78.0 L79.8,72.5 L75.9,68.3 C73.8,66.0 72.0,63.6 72.0,63.0 C72.0,60.6 67.1,59.1 56.5,58.5 C47.5,58.0 45.1,58.1 43.5,59.4 C40.8,61.4 42.3,63.8 47.4,65.5 C49.5,66.3 52.8,68.3 54.6,70.1 C61.1,76.4 60.9,73.7 59.5,134.5 C58.7,164.8 57.7,223.5 57.1,265.0 C56.5,306.5 55.8,343.6 55.5,347.5 C55.2,351.6 54.1,356.3 52.8,358.8 C50.4,363.8 42.7,370.3 37.3,372.0 C35.2,372.6 31.2,374.2 28.5,375.6 C25.8,376.9 21.0,378.4 18.0,379.0 C15.0,379.6 12.1,380.5 11.6,381.0 C10.6,382.0 10.6,389.0 11.6,390.0 C11.9,390.3 15.8,390.6 20.3,390.7 C24.8,390.8 31.0,391.3 34.0,391.8 C40.7,393.0 47.2,392.5 50.3,390.6 Z M286.8,389.9 C288.2,388.9 289.8,388.0 290.5,388.0 C292.5,388.0 302.1,383.3 306.5,380.2 C310.9,377.1 312.9,372.9 312.9,366.3 C313.0,361.9 311.1,359.0 308.2,359.0 C307.3,359.0 304.5,359.9 302.1,361.0 C299.7,362.1 296.0,363.0 293.8,363.0 C291.7,363.0 287.8,364.0 285.2,365.2 C279.8,367.8 267.0,368.5 239.8,367.8 C236.3,367.7 225.2,367.8 215.0,368.0 C197.1,368.4 196.3,368.3 191.7,366.0 C187.1,363.7 186.8,363.7 184.1,365.3 C181.9,366.6 178.8,367.0 171.1,367.0 C161.1,367.0 161.0,367.0 157.3,363.7 C155.1,361.8 151.4,359.9 148.5,359.2 C141.1,357.3 136.3,353.8 135.0,349.3 C133.0,342.1 132.0,330.4 132.1,315.3 C132.2,301.4 132.0,299.8 130.2,297.5 C126.7,293.0 126.5,289.5 129.5,284.3 C132.0,280.2 132.2,279.0 131.8,273.0 C131.4,268.1 130.7,265.5 128.9,263.1 C127.0,260.5 126.8,259.6 127.8,258.2 C132.2,251.9 132.2,251.9 130.9,231.7 C130.1,217.8 129.4,212.3 128.4,211.7 C126.6,210.7 128.5,206.4 132.2,203.0 L134.9,200.5 L133.0,196.7 C131.3,193.2 131.1,189.3 130.5,141.4 C130.1,113.0 129.4,88.4 128.9,86.7 C127.5,81.6 128.9,81.1 141.5,82.1 C160.1,83.4 160.9,83.4 162.2,80.5 L163.4,77.9 L165.6,80.7 C167.7,83.3 168.3,83.5 175.1,83.5 C182.2,83.5 182.5,83.4 183.9,80.6 L185.3,77.7 L187.9,80.8 L190.5,83.9 L208.0,84.2 C240.5,84.6 237.2,84.9 241.4,81.2 C244.9,78.2 245.5,78.0 252.8,78.0 L260.6,78.0 L264.7,73.8 C266.9,71.4 269.3,67.8 270.0,65.6 C271.6,60.5 270.9,50.4 268.7,48.2 C267.1,46.6 266.5,46.8 259.6,50.3 C255.6,52.3 251.4,54.0 250.4,54.0 C249.4,54.1 247.4,54.7 246.0,55.5 C244.6,56.3 241.8,56.9 239.6,57.0 C237.4,57.0 234.2,58.0 232.2,59.2 C229.1,61.1 228.1,61.2 223.6,60.4 C220.7,59.8 213.2,59.7 206.0,60.0 C194.2,60.7 171.9,59.2 167.8,57.5 C166.8,57.1 164.9,57.6 163.3,58.5 C160.5,60.1 160.3,60.1 155.6,57.6 C151.5,55.5 149.4,55.0 143.0,55.0 C138.8,55.0 130.9,54.3 125.4,53.5 C107.7,50.7 106.5,50.7 103.4,52.3 C101.8,53.1 98.4,54.0 95.8,54.4 C93.2,54.8 90.8,55.4 90.6,55.8 C90.3,56.2 91.1,59.3 92.3,62.7 C94.1,67.9 94.3,69.4 93.3,72.2 C92.7,74.0 92.3,79.7 92.5,85.0 L92.8,94.5 L97.4,97.4 L102.1,100.3 L99.1,101.6 C97.5,102.3 95.7,103.7 95.2,104.7 C93.8,107.3 92.7,119.4 93.5,123.9 C94.0,127.2 94.6,127.9 97.1,128.4 C99.4,128.8 100.0,129.5 100.0,131.5 C100.0,134.5 98.3,138.0 96.2,139.6 C94.9,140.6 94.8,143.6 95.4,161.6 C95.9,173.1 96.4,191.0 96.6,201.4 C96.9,219.0 97.1,220.5 99.1,222.6 C101.1,224.7 101.1,225.0 99.7,227.7 C94.9,236.4 94.7,238.9 94.0,305.0 C93.3,368.9 93.1,371.5 89.3,378.1 C87.9,380.4 87.9,380.9 89.4,383.3 C92.0,387.2 97.7,389.5 102.0,388.4 C103.9,387.8 107.2,387.8 109.2,388.2 C112.9,388.9 139.0,389.8 170.5,390.2 C175.4,390.3 180.6,390.3 182.0,390.3 C183.4,390.2 190.7,390.0 198.2,389.8 C211.8,389.5 211.9,389.5 214.9,386.6 L218.0,383.6 L220.8,386.3 C223.2,388.6 224.5,389.0 229.3,389.0 C234.3,389.0 235.2,388.7 237.9,385.8 C239.6,384.0 241.0,383.1 241.0,383.7 C241.0,386.3 246.6,387.7 258.6,388.3 C268.5,388.7 271.2,389.2 274.1,390.9 C278.1,393.4 282.9,393.0 286.8,389.9 Z M2081.3,368.0 C2083.4,367.0 2086.6,365.6 2088.5,365.0 C2093.6,363.3 2094.6,361.6 2092.2,358.5 C2087.9,353.0 2086.7,346.6 2086.6,328.5 C2086.5,314.1 2086.8,310.7 2088.4,306.4 C2090.8,300.0 2090.0,296.7 2085.5,293.7 C2083.6,292.5 2082.0,291.1 2082.0,290.6 C2082.0,290.1 2083.6,287.9 2085.6,285.7 C2088.9,282.1 2089.2,281.4 2088.5,277.6 C2088.1,275.4 2087.6,269.4 2087.5,264.5 C2087.2,255.6 2087.1,255.5 2084.1,253.7 C2081.1,251.9 2080.0,248.7 2082.0,247.5 C2083.0,246.9 2086.7,248.5 2088.8,250.7 C2090.8,252.6 2095.4,252.3 2099.5,249.9 C2102.8,247.9 2103.6,247.9 2110.8,248.9 C2115.0,249.5 2122.8,250.1 2128.1,250.2 C2140.9,250.6 2143.0,249.3 2143.0,241.5 C2143.0,237.4 2142.5,235.5 2141.0,234.0 C2137.6,230.6 2134.6,230.5 2126.2,233.9 C2116.9,237.7 2115.6,237.7 2107.4,234.4 C2101.6,232.1 2100.2,231.9 2092.9,232.6 L2084.8,233.3 L2085.2,219.4 C2085.6,206.2 2086.6,201.0 2089.0,201.0 C2089.5,201.0 2091.8,203.0 2094.1,205.5 C2096.4,208.0 2099.2,210.0 2100.3,210.0 C2101.4,210.0 2104.4,208.8 2106.9,207.3 C2111.3,204.7 2112.1,204.6 2122.8,204.8 C2136.8,205.1 2140.0,203.8 2140.0,197.8 C2140.0,196.2 2138.8,193.7 2136.9,191.6 L2133.9,188.1 L2122.2,188.7 C2115.8,189.0 2109.7,189.7 2108.7,190.2 C2107.4,190.9 2105.9,190.5 2103.4,188.9 C2100.6,187.2 2099.0,186.9 2095.4,187.4 C2092.3,187.8 2090.0,187.5 2087.9,186.5 C2084.7,184.8 2083.2,180.7 2084.9,178.6 C2087.0,176.1 2088.1,170.6 2087.4,165.7 C2086.9,161.4 2086.4,160.7 2083.4,159.2 C2081.2,158.2 2080.1,157.1 2080.5,156.2 C2080.8,155.5 2081.0,154.2 2081.0,153.5 C2081.0,152.7 2082.4,150.6 2084.1,148.9 L2087.2,145.7 L2086.4,138.1 C2086.0,133.9 2085.7,128.9 2085.7,127.0 C2085.7,125.1 2085.4,118.2 2084.8,111.8 C2084.1,102.7 2084.2,99.7 2085.2,98.0 C2086.5,95.8 2094.8,91.0 2097.2,91.0 C2097.9,91.0 2099.1,90.6 2099.9,90.1 C2102.2,88.6 2099.7,86.4 2093.7,84.4 C2090.8,83.5 2085.2,81.1 2081.2,79.1 C2074.5,75.9 2074.0,75.4 2075.7,74.2 C2078.2,72.3 2087.1,73.4 2093.8,76.5 C2096.8,77.9 2099.6,78.7 2100.1,78.4 C2103.3,76.5 2135.5,85.2 2144.3,90.4 C2150.6,94.1 2153.2,93.5 2156.4,87.2 L2158.8,82.5 L2159.4,86.0 C2159.7,87.9 2160.1,90.6 2160.2,91.9 C2160.5,94.5 2160.5,94.5 2169.5,98.3 C2178.3,102.1 2180.4,102.3 2182.6,99.9 L2184.4,97.9 L2185.2,100.0 C2185.7,101.3 2186.7,102.0 2187.7,101.8 C2188.7,101.6 2190.2,102.4 2191.0,103.7 C2191.8,104.9 2198.3,108.9 2205.5,112.5 C2212.7,116.2 2220.3,120.6 2222.5,122.3 C2225.1,124.4 2227.9,125.6 2231.0,126.0 C2234.9,126.4 2235.5,126.8 2235.8,129.1 C2236.0,130.5 2239.3,135.4 2243.1,140.1 C2247.0,144.7 2250.9,149.5 2251.7,150.7 C2252.5,151.9 2254.0,153.2 2255.0,153.5 C2256.0,153.8 2257.5,156.2 2258.5,158.8 C2262.5,169.9 2265.0,179.5 2265.0,183.6 C2265.0,189.4 2267.2,190.8 2278.3,191.6 C2289.9,192.5 2290.0,194.0 2278.5,195.5 C2275.8,195.9 2271.8,196.6 2269.7,197.1 L2266.0,198.1 L2266.6,204.5 C2267.5,213.0 2265.5,225.6 2261.8,234.7 C2258.9,242.1 2258.8,243.4 2260.6,249.8 C2261.1,251.5 2260.9,251.9 2259.7,251.4 C2258.3,250.9 2253.0,255.5 2253.0,257.2 C2253.0,257.7 2254.4,259.9 2256.0,262.2 C2259.3,266.7 2259.3,267.8 2256.2,266.1 C2253.1,264.4 2252.5,264.7 2249.8,268.8 C2248.4,270.8 2244.8,276.4 2241.7,281.1 C2238.6,285.8 2235.4,291.5 2234.6,293.6 C2230.6,304.8 2226.5,311.1 2218.0,318.7 C2214.7,321.7 2212.0,325.0 2212.0,325.9 C2212.0,327.9 2208.7,331.4 2207.8,330.4 C2206.9,329.6 2203.5,331.5 2195.8,337.2 C2192.1,339.9 2186.2,343.8 2182.7,345.8 C2175.0,350.3 2167.6,355.5 2163.6,359.3 C2161.1,361.7 2160.3,362.0 2158.4,361.1 C2156.6,360.3 2155.1,360.5 2151.8,362.0 C2149.4,363.1 2146.7,364.0 2145.6,364.0 C2144.6,364.0 2139.9,364.9 2135.1,366.1 C2124.9,368.6 2113.0,368.9 2107.9,366.7 C2105.0,365.5 2103.9,365.5 2102.0,366.5 C2100.7,367.2 2096.3,367.8 2092.4,367.9 C2088.4,368.0 2083.9,368.5 2082.5,369.0 C2078.1,370.7 2077.3,370.0 2081.3,368.0 Z M1493.5,353.1 C1492.6,351.6 1495.4,348.4 1498.3,347.6 C1500.5,347.1 1500.5,346.8 1500.4,329.2 C1500.3,312.4 1500.2,311.1 1498.1,308.1 C1496.9,306.4 1495.1,304.6 1494.2,304.0 C1492.7,303.1 1492.8,302.7 1495.5,300.5 C1505.0,292.5 1504.3,293.5 1503.6,287.2 C1500.3,259.8 1499.7,212.9 1502.3,186.9 C1503.2,178.4 1503.6,170.3 1503.3,168.9 C1503.0,167.6 1501.6,165.3 1500.2,163.8 C1498.1,161.5 1497.9,160.8 1499.0,159.5 C1499.7,158.7 1500.8,158.0 1501.6,158.0 C1502.3,158.0 1503.4,157.1 1504.0,156.1 C1505.4,153.4 1505.3,139.7 1503.8,138.2 C1502.9,137.3 1502.9,136.4 1503.8,134.5 C1505.1,131.8 1505.4,120.3 1504.4,117.6 C1503.9,116.3 1503.0,116.1 1500.4,116.6 C1494.5,117.7 1496.3,114.5 1504.4,109.4 C1509.7,106.0 1510.2,104.0 1506.6,99.1 C1503.7,95.1 1502.5,89.4 1503.9,85.7 C1505.1,82.5 1507.1,82.3 1511.4,84.9 C1513.1,85.9 1516.1,87.1 1518.0,87.5 C1524.3,88.7 1545.2,99.7 1552.1,105.3 C1555.7,108.3 1560.6,113.6 1563.0,117.1 C1565.3,120.6 1568.1,124.4 1569.1,125.5 C1571.7,128.4 1577.4,141.3 1580.0,150.5 C1581.3,154.9 1583.4,160.7 1584.7,163.3 C1585.9,166.0 1587.0,168.7 1587.0,169.4 C1587.0,170.1 1588.1,172.1 1589.5,174.0 C1591.5,176.7 1592.0,178.6 1592.0,183.5 C1592.0,186.9 1591.5,190.1 1590.9,190.7 C1589.2,192.4 1588.8,204.5 1590.1,219.5 C1591.8,240.1 1591.7,244.6 1589.6,246.9 C1587.7,249.0 1586.1,258.3 1586.0,267.5 C1586.0,274.8 1581.0,294.7 1576.7,304.8 C1574.9,308.8 1572.0,313.8 1570.1,315.8 C1568.2,317.8 1564.5,322.3 1561.8,325.7 C1557.7,331.0 1557.0,332.6 1557.0,336.4 C1557.0,341.3 1556.1,342.0 1550.1,342.0 C1548.1,342.0 1546.0,342.4 1545.4,343.0 C1544.9,343.5 1541.1,345.6 1537.0,347.6 C1530.2,350.9 1528.4,351.3 1518.0,352.1 C1511.7,352.5 1503.7,353.2 1500.4,353.6 C1496.1,354.1 1494.1,353.9 1493.5,353.1 Z M1474.0,348.1 C1472.6,347.1 1469.2,346.0 1466.5,345.7 C1463.1,345.4 1457.6,343.2 1449.0,338.8 C1435.2,331.8 1423.8,323.7 1417.0,316.3 C1407.5,305.8 1405.9,303.8 1403.4,298.9 C1401.4,294.9 1400.0,293.5 1396.9,292.2 C1393.2,290.8 1393.0,290.5 1393.6,287.4 C1394.3,283.7 1390.9,275.3 1388.3,274.3 C1387.5,274.0 1385.0,274.7 1382.8,275.9 L1378.8,278.0 L1379.5,274.7 C1379.9,273.0 1381.3,269.1 1382.6,266.2 C1384.8,261.1 1384.9,260.6 1383.5,255.2 C1380.9,244.4 1379.7,230.0 1380.3,215.4 C1380.6,206.9 1380.5,199.6 1379.9,197.5 C1378.9,193.9 1379.0,193.7 1383.0,190.3 C1385.4,188.2 1388.2,184.3 1389.9,180.6 C1394.6,170.7 1400.0,157.2 1400.0,155.6 C1400.0,154.8 1401.6,152.0 1403.6,149.4 C1405.6,146.8 1408.6,142.4 1410.1,139.8 C1411.7,137.1 1416.4,131.0 1420.6,126.2 C1424.8,121.4 1429.3,115.1 1430.6,112.3 C1432.7,107.7 1433.3,107.0 1435.9,107.0 C1437.4,107.0 1439.8,106.2 1441.1,105.3 C1448.6,99.8 1470.8,89.3 1476.7,88.5 C1479.7,88.0 1482.5,86.9 1484.2,85.3 C1487.3,82.3 1490.6,82.6 1490.3,85.8 C1490.1,87.0 1488.9,90.2 1487.6,93.0 C1485.5,97.3 1485.2,99.0 1485.7,105.7 C1486.0,110.8 1485.6,115.4 1484.7,118.9 C1483.3,123.9 1483.3,124.5 1485.1,127.4 C1487.3,131.1 1487.5,137.8 1485.5,143.4 C1484.3,146.8 1484.3,147.7 1485.6,150.3 C1486.5,151.9 1488.0,153.5 1489.1,153.7 C1492.1,154.5 1491.3,156.6 1487.8,157.6 L1484.5,158.6 L1483.8,187.0 C1483.4,202.7 1482.6,222.5 1482.1,230.9 C1481.2,245.2 1481.3,246.8 1483.1,251.6 C1484.2,254.5 1485.7,257.4 1486.5,258.0 C1487.3,258.7 1488.0,259.9 1488.0,260.7 C1488.0,262.0 1487.6,262.0 1485.4,260.5 C1484.0,259.6 1482.3,259.1 1481.6,259.3 C1480.2,259.8 1478.8,266.3 1478.8,271.5 C1478.8,282.1 1476.7,317.5 1475.4,327.4 C1474.0,338.9 1474.0,339.4 1475.9,341.4 C1477.0,342.6 1478.3,344.7 1478.9,346.1 C1480.5,350.4 1478.3,351.2 1474.0,348.1 Z M3450.9,345.6 C3452.4,344.8 3454.2,343.4 3454.9,342.6 C3456.6,340.6 3459.9,340.5 3460.6,342.5 C3461.4,344.5 3468.9,344.5 3473.5,342.6 C3484.3,338.1 3496.0,322.4 3496.0,312.6 C3496.0,307.3 3494.4,306.0 3487.8,306.0 C3483.3,306.1 3481.7,307.3 3472.0,319.2 C3467.4,324.7 3461.4,327.2 3454.8,326.4 C3451.9,326.1 3448.5,325.2 3447.4,324.4 C3444.4,322.6 3443.8,318.5 3446.1,316.4 C3448.4,314.3 3448.6,309.0 3446.6,305.1 C3442.5,297.3 3427.4,298.9 3424.5,307.6 C3423.9,309.2 3422.5,311.9 3421.2,313.4 C3417.6,318.1 3418.1,324.4 3422.8,331.6 C3431.0,344.3 3442.4,350.0 3450.9,345.6 Z M3492.6,298.6 C3493.7,297.8 3495.2,295.4 3495.9,293.2 C3497.3,289.2 3497.4,289.5 3493.1,282.0 C3492.7,281.2 3491.5,278.8 3490.4,276.6 C3488.0,271.6 3486.6,271.2 3481.4,273.9 C3476.7,276.4 3473.8,281.2 3475.9,283.3 C3476.5,283.9 3477.0,285.8 3477.0,287.6 C3477.0,292.5 3479.0,296.9 3481.9,298.5 C3485.3,300.3 3490.0,300.4 3492.6,298.6 Z M3393.0,282.2 C3395.6,278.0 3400.8,273.0 3402.6,273.0 C3402.9,273.0 3404.5,271.9 3406.2,270.5 C3407.8,269.1 3412.9,266.8 3417.6,265.4 C3433.1,260.6 3449.9,263.1 3458.1,271.6 C3460.8,274.4 3462.1,275.0 3465.6,275.0 C3469.1,275.0 3470.3,274.5 3472.9,271.5 C3477.5,266.2 3477.8,263.6 3474.4,258.8 C3470.4,253.2 3461.8,249.6 3455.9,250.9 C3452.7,251.6 3449.9,251.4 3443.4,249.7 C3435.2,247.7 3434.7,247.7 3430.2,249.3 C3427.6,250.3 3424.6,251.0 3423.5,251.0 C3421.6,251.1 3414.3,253.5 3398.7,259.3 C3394.9,260.7 3390.9,262.7 3389.7,263.8 C3388.5,264.9 3386.3,266.3 3384.8,266.9 C3381.3,268.2 3380.3,271.8 3382.4,275.8 C3383.3,277.5 3384.0,279.7 3384.0,280.7 C3384.0,283.2 3386.8,287.0 3388.6,287.0 C3389.4,287.0 3391.3,284.9 3393.0,282.2 Z M2832.8,246.5 C2837.7,244.4 2843.8,238.5 2846.1,233.5 C2848.8,227.7 2848.6,217.7 2845.8,212.0 C2843.9,208.3 2842.4,206.9 2837.0,204.3 C2828.3,200.0 2823.2,199.9 2819.0,204.0 C2817.3,205.7 2815.2,207.0 2814.4,207.0 C2805.4,207.0 2799.8,222.7 2805.1,233.2 C2807.8,238.5 2815.6,246.8 2818.3,247.3 C2823.2,248.3 2829.3,247.9 2832.8,246.5 Z M714.3,225.0 C718.3,222.7 720.0,218.6 720.0,211.7 C720.0,205.8 715.9,199.8 710.1,197.4 C705.3,195.4 704.1,195.6 702.7,198.8 C701.9,200.7 700.9,201.4 699.7,201.2 C696.2,200.5 693.0,202.0 690.5,205.7 C686.7,211.4 687.6,218.3 692.8,224.2 C694.6,226.3 698.1,226.5 699.8,224.8 C700.8,223.8 701.5,224.1 703.3,225.8 C705.9,228.5 708.7,228.3 714.3,225.0 Z M919.8,214.6 C926.2,211.3 927.6,209.6 926.4,206.2 C925.6,203.8 925.8,203.4 928.5,202.0 C931.2,200.7 931.5,200.0 931.3,196.4 C930.9,186.9 924.6,180.4 915.0,179.8 C910.8,179.5 910.5,179.7 910.2,182.2 C909.8,185.4 909.8,185.5 906.2,183.6 C900.6,180.7 894.6,184.4 892.9,191.7 C892.4,193.8 892.0,198.1 892.0,201.2 C892.0,206.3 892.4,207.3 895.2,210.2 C900.6,215.8 903.0,217.0 909.3,217.0 C913.4,217.0 916.4,216.3 919.8,214.6 Z M290.0,157.8 C292.0,156.4 294.6,153.0 296.4,149.4 C298.1,146.1 300.5,142.1 301.8,140.5 C303.7,138.1 304.0,136.8 303.6,132.2 C303.0,124.5 300.7,123.3 294.6,127.5 C288.4,131.7 283.6,133.8 275.4,136.0 C264.3,138.9 241.0,141.2 224.5,141.0 C216.8,140.9 204.0,140.8 196.0,140.8 C178.3,140.9 165.2,139.7 161.1,137.6 C159.5,136.7 157.5,136.3 156.7,136.6 C153.4,137.8 151.8,147.3 154.1,152.3 C154.7,153.6 156.8,155.5 158.8,156.5 C162.0,158.1 165.1,158.3 183.4,158.1 C195.7,158.0 204.9,157.5 205.6,156.9 C206.4,156.2 209.6,156.3 215.2,157.0 C219.7,157.5 235.7,158.1 250.5,158.1 C265.4,158.1 278.4,158.5 279.5,159.0 C283.0,160.5 286.6,160.1 290.0,157.8 Z M3540.5,140.8 C3551.1,135.5 3558.6,122.2 3554.4,116.1 C3552.2,113.0 3548.1,113.5 3540.7,117.5 C3537.2,119.4 3533.1,121.0 3531.6,121.0 C3527.9,121.0 3523.0,116.1 3523.0,112.3 C3523.0,107.0 3517.3,102.0 3511.3,102.0 C3507.1,102.0 3500.7,106.1 3498.7,110.0 C3496.5,114.4 3497.1,119.6 3500.7,126.1 C3504.9,133.9 3508.3,136.5 3514.1,136.4 C3518.8,136.4 3519.0,136.5 3519.0,139.2 C3519.0,142.2 3520.0,142.7 3528.0,143.3 C3533.5,143.7 3535.3,143.3 3540.5,140.8 Z M3568.6,107.7 C3571.7,105.0 3571.8,103.3 3570.1,91.5 C3569.5,87.7 3568.8,81.3 3568.4,77.5 C3567.7,69.9 3566.8,68.0 3563.9,68.0 C3562.2,68.0 3562.1,67.5 3562.6,64.2 C3563.1,60.9 3562.8,60.1 3559.3,56.3 C3556.8,53.6 3552.6,50.8 3546.7,48.1 C3541.8,45.8 3537.6,44.0 3537.3,44.0 C3536.9,44.0 3534.7,43.0 3532.3,41.9 C3528.1,39.9 3527.8,39.8 3526.0,41.5 C3524.9,42.5 3524.0,44.3 3524.0,45.6 C3524.0,48.8 3522.2,53.2 3521.1,52.6 C3520.6,52.3 3519.7,50.0 3519.1,47.5 C3517.8,42.2 3515.0,40.2 3512.5,42.6 C3511.5,43.6 3511.2,44.9 3511.6,45.9 C3512.0,46.8 3512.6,51.0 3512.9,55.4 C3513.4,62.0 3513.9,63.5 3515.9,65.2 C3517.9,66.8 3519.3,67.0 3523.6,66.4 C3528.2,65.9 3529.4,66.1 3534.9,69.1 C3541.0,72.5 3541.0,72.5 3544.1,70.7 C3548.0,68.5 3548.8,69.1 3546.6,72.4 C3544.8,75.2 3544.5,78.6 3546.0,79.5 C3546.6,79.8 3547.0,81.6 3547.0,83.5 C3547.0,85.4 3547.8,88.4 3548.9,90.2 C3549.9,92.0 3551.0,95.9 3551.4,98.9 C3552.0,105.1 3554.0,108.7 3557.2,109.3 C3562.9,110.4 3566.0,109.9 3568.6,107.7 Z"/>
</svg>