<svg xmlns="http://www.w3.org/2000/svg" viewBox="-779 -22 1066 1586">
  <path d="M0 0 C3.947 3.073 6.084 5.992 7 10.938 C7.334 17.59 5.58 23.283 1.465 28.531 C-4.778 34.79 -16.112 34.936 -24.375 35.312 C-28.134 35.612 -29.657 35.764 -32.812 37.938 C-35.277 41.388 -37.704 44.862 -40.102 48.359 C-48.13 59.526 -48.13 59.526 -54 62 C-62.334 63.25 -70.606 60.755 -78.625 58.75 C-79.896 58.45 -81.167 58.149 -82.477 57.84 C-88.411 56.387 -93.798 54.877 -99.157 51.933 C-110.709 46.088 -126.578 43.548 -139 47.312 C-139.789 47.59 -140.578 47.867 -141.391 48.152 C-144.479 49.156 -147.563 49.755 -150.75 50.375 C-166.43 53.519 -166.43 53.519 -179.649 61.755 C-181.32 64.532 -181.387 66.287 -181.398 69.516 C-181.408 71.133 -181.408 71.133 -181.417 72.784 C-181.403 73.928 -181.389 75.071 -181.375 76.25 C-181.366 77.424 -181.358 78.597 -181.349 79.806 C-181.196 88.877 -180.2 97.181 -178 106 C-177.693 107.367 -177.388 108.734 -177.086 110.102 C-174.677 120.687 -170.945 130.336 -166 140 C-163.273 145.352 -161.84 150.044 -163 156 C-166.028 160.2 -170.391 162.722 -174.719 165.473 C-180.043 169.037 -183.778 172.948 -187.625 178 C-188.102 178.616 -188.579 179.232 -189.07 179.867 C-189.986 181.052 -190.896 182.241 -191.801 183.434 C-192.79 184.725 -193.816 185.988 -194.852 187.242 C-196.314 189.089 -196.314 189.089 -195.75 192.125 C-195.127 194.918 -195.127 194.918 -194 197 C-190.387 198.144 -188.668 198.575 -185 198 C-181.559 195.943 -178.614 193.729 -175.504 191.199 C-167.819 185.752 -157.354 186.678 -148.375 186.75 C-146.5 186.762 -146.5 186.762 -144.588 186.775 C-135.56 186.884 -126.887 187.332 -118 189 C-116.968 189.188 -115.937 189.377 -114.874 189.571 C-92.819 193.666 -71.369 198.331 -52 210 C-51.37 210.374 -50.74 210.749 -50.091 211.135 C-46.888 213.039 -43.697 214.96 -40.512 216.895 C-34.565 220.486 -28.466 223.78 -22.246 226.871 C-17.791 229.09 -13.396 231.417 -9 233.75 C-2.952 236.949 3.118 240.089 9.25 243.125 C19.066 247.995 28.729 253.113 38.237 258.562 C44.683 262.251 51 265.463 58 268 C60.346 268.972 62.67 269.989 65 271 C66.196 271.433 67.393 271.866 68.625 272.312 C72.424 274.212 74.994 276.26 77 280 C77.382 282.944 77.012 285.694 76.625 288.625 C75.888 296.7 75.365 304.833 80.27 311.805 C84.897 315.952 90.768 315.599 96.695 315.664 C101.729 316.176 104.219 318.254 107.812 321.688 C112.404 328.438 110.392 339.599 109.375 347.25 C108.997 351.03 109.085 351.939 111 355 C114.237 356.451 116.624 355.69 120 355 C132.394 354.38 139.568 357.779 149 366 C154.151 371.028 158.303 376.656 162.348 382.59 C163.87 384.811 165.442 386.975 167.062 389.125 C167.55 389.772 168.037 390.419 168.539 391.086 C169.503 392.349 170.477 393.604 171.461 394.852 C175.225 399.691 178.241 404.797 181.281 410.117 C183.156 413.262 185.22 416.125 187.469 419.008 C189.222 421.289 190.861 423.635 192.5 426 C194.674 429.129 196.887 432.213 199.188 435.25 C201.588 438.423 203.823 441.667 206 445 C206.44 445.643 206.879 446.286 207.332 446.949 C212.892 455.121 218.201 463.513 221.98 472.672 C222.913 474.916 222.913 474.916 223.926 476.612 C227.269 482.606 228.22 488.573 229.188 495.312 C229.512 497.455 229.839 499.597 230.168 501.738 C230.305 502.677 230.442 503.616 230.583 504.583 C230.96 507.132 230.96 507.132 232 510 C232.585 515.965 231.57 520.246 228 525 C225.544 527.243 223.011 529.258 220.34 531.238 C218.371 532.721 216.682 534.208 215 536 C216.425 539.563 217.327 541.591 220.656 543.613 C224.258 545.107 227.529 545.764 231.375 546.375 C239.587 547.878 245.082 550.113 250.25 556.812 C253.558 562.155 254.741 567.965 256.043 574.035 C256.639 576.745 257.437 579.203 258.488 581.77 C260.491 586.899 261.187 592.202 262 597.625 C262.986 604.049 264.066 610.385 265.535 616.719 C267.445 625.424 267.991 634.164 268.581 643.036 C269.213 652.293 270.454 660.892 272.985 669.833 C275.618 679.926 276.309 690.02 276.301 700.41 C276.307 702.281 276.307 702.281 276.314 704.189 C276.319 706.818 276.32 709.448 276.316 712.077 C276.313 716 276.336 719.923 276.361 723.846 C276.398 739.009 275.57 753.82 273.712 768.87 C272.566 778.224 272.226 787.587 272 797 C271.967 798.007 271.935 799.013 271.901 800.05 C271.531 812.174 271.629 823.578 274.753 835.37 C276.178 841.032 276.023 845.479 274 851 C269.613 858.259 261.978 864.117 253.879 866.668 C253.259 866.819 252.639 866.97 252 867.125 C248.899 867.668 248.899 867.668 247.75 870 C247.503 870.66 247.255 871.32 247 872 C246.01 872.66 245.02 873.32 244 874 C242.418 881.642 244.172 888.123 248.164 894.664 C250.439 897.559 252.675 899.177 255.902 900.887 C258.239 902.127 260.307 903.558 262.438 905.125 C263.426 905.84 263.426 905.84 264.434 906.57 C267.11 909.013 267.022 911.34 267.25 914.875 C267.193 918.775 266.222 920.747 264 924 C262.994 926.075 262.083 928.182 261.172 930.301 C260.317 932.27 259.427 934.224 258.516 936.168 C254.939 944.003 252.915 951.376 251.413 959.829 C247.972 977.93 243.093 995.424 235 1012 C233.953 1014.247 232.911 1016.497 231.875 1018.75 C231.377 1019.83 230.88 1020.91 230.367 1022.023 C229.916 1023.006 229.465 1023.988 229 1025 C228.478 1026.133 228.478 1026.133 227.945 1027.289 C226.149 1031.252 224.51 1035.251 222.942 1039.31 C218.568 1050.563 212.751 1060.847 206.613 1071.23 C205.204 1073.649 203.875 1076.091 202.562 1078.562 C199.536 1084.057 195.792 1089.016 192 1094 C191.533 1094.624 191.067 1095.248 190.586 1095.891 C187.832 1099.409 184.792 1101.673 181 1104 C180.67 1104.33 180.34 1104.66 180 1105 C174.094 1105.4 171.314 1104.657 166 1102 C162.53 1101.609 159.188 1101.406 156 1103 C156.234 1104.503 156.488 1106.002 156.75 1107.5 C156.889 1108.335 157.028 1109.171 157.172 1110.031 C157.901 1112.645 158.743 1114.463 160.031 1116.812 C162.234 1121.081 162.771 1124.731 162.75 1129.5 C162.748 1130.275 162.745 1131.051 162.742 1131.85 C162.229 1144.436 154.464 1155.303 147 1165 C146.435 1165.744 145.871 1166.488 145.289 1167.254 C141.558 1172.107 137.701 1176.86 133.859 1181.625 C132.198 1183.747 130.648 1185.904 129.125 1188.125 C128.424 1189.074 127.722 1190.023 127 1191 C126.34 1191 125.68 1191 125 1191 C124.623 1192.098 124.623 1192.098 124.238 1193.219 C122.907 1196.209 121.398 1198.099 119.188 1200.5 C118.521 1201.232 117.855 1201.964 117.168 1202.719 C115.693 1204.271 114.194 1205.802 112.676 1207.312 C109.368 1210.634 106.186 1214.062 103 1217.5 C97.255 1223.7 91.503 1229.581 85 1235 C84.196 1235.804 83.391 1236.609 82.562 1237.438 C80.59 1239.41 78.625 1241.205 76.5 1243 C74.399 1244.775 72.45 1246.55 70.5 1248.5 C63.043 1255.957 54.6 1262.551 45 1267 C44.01 1267.66 43.02 1268.32 42 1269 C36.688 1270.438 31.159 1270.314 25.691 1270.523 C21.815 1271.024 19.371 1272.077 16 1274 C14.845 1274.557 13.69 1275.114 12.5 1275.688 C7.536 1279.252 6.298 1285.58 4.387 1291.109 C1.309 1299.965 -3.347 1304.703 -11 1310 C-11.593 1310.452 -12.186 1310.905 -12.797 1311.371 C-23.623 1319.06 -38.467 1320.884 -51.219 1323.213 C-55.748 1324.056 -60.076 1324.903 -64.375 1326.586 C-70.083 1328.813 -75.446 1329.14 -81.539 1329.281 C-82.26 1329.3 -82.981 1329.318 -83.724 1329.337 C-86.024 1329.395 -88.324 1329.448 -90.625 1329.5 C-93.617 1329.57 -96.609 1329.643 -99.602 1329.719 C-100.363 1329.737 -101.124 1329.755 -101.908 1329.774 C-105.908 1329.879 -109.896 1330.041 -113.89 1330.296 C-125.861 1331.054 -137.485 1330.773 -149.438 1329.812 C-150.328 1329.745 -151.218 1329.678 -152.135 1329.608 C-163.868 1328.715 -175.384 1327.514 -186.871 1324.867 C-196.98 1322.618 -207.459 1322.643 -217.77 1322.333 C-219.518 1322.277 -221.265 1322.215 -223.012 1322.146 C-225.557 1322.046 -228.102 1321.966 -230.648 1321.891 C-231.428 1321.856 -232.207 1321.822 -233.01 1321.787 C-236.301 1321.71 -238.575 1321.765 -241.489 1323.376 C-243.426 1325.457 -243.538 1326.558 -243.5 1329.375 C-243.262 1333.832 -242.396 1335.936 -239 1339 C-236.754 1340.563 -234.473 1342.058 -232.172 1343.539 C-229.377 1345.419 -227.226 1347.473 -225 1350 C-224.209 1350.878 -224.209 1350.878 -223.402 1351.773 C-222.857 1352.426 -222.312 1353.078 -221.75 1353.75 C-221.25 1354.343 -220.75 1354.936 -220.234 1355.547 C-217.083 1361.809 -217.975 1368.845 -218.938 1375.562 C-220.48 1388.004 -220.469 1399.589 -218.142 1411.913 C-216.882 1418.87 -216.515 1425.774 -216.291 1432.833 C-216.138 1437.632 -215.735 1442.245 -215 1447 C-214.006 1457.471 -214.006 1457.471 -217 1461.5 C-222.354 1465.962 -227.409 1466.959 -234.125 1467.875 C-239.622 1468.738 -242.526 1469.561 -246 1474 C-246.977 1478.146 -246.977 1478.146 -246 1482 C-242.903 1485.709 -239.598 1488.467 -235 1490 C-227.728 1490.592 -221.443 1489.781 -214.473 1487.77 C-210.903 1486.979 -207.53 1486.709 -203.892 1486.482 C-194.454 1485.847 -188.489 1484.41 -182 1477 C-179.903 1474.46 -177.869 1471.886 -175.863 1469.273 C-172.315 1464.944 -168.59 1462.071 -163.062 1460.875 C-158.048 1460.546 -154.76 1462.916 -151 1466 C-149.196 1467.673 -147.48 1469.396 -145.781 1471.176 C-142.706 1474.325 -139.337 1477.134 -136 1480 C-135.424 1480.516 -134.848 1481.031 -134.254 1481.562 C-129.791 1485.521 -125.038 1488.814 -120 1492 C-118.703 1492.83 -118.703 1492.83 -117.379 1493.676 C-106.904 1500.197 -97.409 1499.224 -85.328 1498.676 C-84.669 1498.647 -84.01 1498.617 -83.331 1498.587 C-79.259 1498.407 -79.259 1498.407 -75.189 1498.201 C-58.47 1497.312 -58.47 1497.312 -51.5 1503.062 C-47.895 1507.298 -44.399 1511.598 -41 1516 C-40.196 1517.031 -39.391 1518.062 -38.562 1519.125 C-35.961 1523.912 -35.435 1527.603 -36.664 1532.816 C-38.438 1538.233 -39.902 1542.054 -45 1545 C-46.027 1545.644 -46.027 1545.644 -47.074 1546.301 C-59.826 1553.987 -75.205 1550.769 -89.001 1547.46 C-99.902 1544.909 -111.017 1544.841 -122.164 1544.719 C-124.171 1544.691 -126.178 1544.662 -128.185 1544.634 C-132.368 1544.576 -136.552 1544.526 -140.736 1544.474 C-144.2 1544.431 -147.664 1544.386 -151.128 1544.337 C-153.71 1544.301 -156.292 1544.268 -158.874 1544.24 C-164.878 1544.155 -170.771 1543.899 -176.737 1543.228 C-180.31 1542.868 -183.876 1542.807 -187.465 1542.754 C-189.023 1542.721 -190.581 1542.688 -192.139 1542.654 C-194.539 1542.607 -196.939 1542.562 -199.339 1542.523 C-207.435 1542.385 -215.174 1542.163 -223.122 1540.492 C-229.708 1539.365 -236.459 1539.263 -243.125 1538.938 C-244.73 1538.853 -246.334 1538.769 -247.938 1538.684 C-258.231 1538.146 -268.526 1537.748 -278.826 1537.394 C-284.162 1537.189 -289.342 1536.773 -294.625 1536 C-303.034 1534.804 -311.452 1534.663 -319.933 1534.448 C-328.634 1534.224 -337.267 1533.794 -345.938 1533 C-358.175 1531.941 -370.411 1531.631 -382.688 1531.375 C-383.706 1531.353 -384.724 1531.331 -385.774 1531.308 C-397.517 1531.062 -409.243 1530.977 -420.988 1531.152 C-423.108 1531.177 -425.227 1531.202 -427.347 1531.227 C-431.339 1531.275 -435.328 1531.363 -439.319 1531.476 C-453.059 1531.735 -464.282 1529.568 -476 1522 C-479.832 1518.284 -481.79 1514.924 -482.375 1509.562 C-482.257 1501.584 -478.172 1493.218 -472.742 1487.465 C-466.89 1482.544 -460.73 1479.877 -453.105 1479.867 C-452.157 1479.866 -451.209 1479.864 -450.233 1479.863 C-448.725 1479.869 -448.725 1479.869 -447.188 1479.875 C-446.152 1479.873 -445.117 1479.872 -444.051 1479.87 C-438.317 1479.886 -432.757 1480.172 -427.062 1480.812 C-413.019 1481.905 -399.867 1474.579 -388.078 1467.723 C-375.263 1460.404 -359.817 1455.016 -344.836 1458.504 C-340.574 1459.944 -336.93 1462.156 -333.25 1464.719 C-326.236 1468.713 -320.13 1469.522 -312.188 1469.5 C-310.777 1469.543 -310.777 1469.543 -309.338 1469.586 C-306.791 1469.593 -304.492 1469.526 -302 1469 C-299.476 1466.421 -298.998 1465.075 -299.004 1461.5 C-300.139 1456.422 -301.098 1452.685 -305 1449 C-306.072 1448.381 -307.145 1447.763 -308.25 1447.125 C-309.158 1446.424 -310.065 1445.723 -311 1445 C-311.425 1440.076 -310.658 1435.955 -309.32 1431.23 C-308.964 1429.931 -308.61 1428.631 -308.256 1427.331 C-307.978 1426.319 -307.978 1426.319 -307.695 1425.286 C-303.59 1410.161 -301.617 1395.681 -301 1380 C-300.766 1374.561 -300.508 1369.124 -300.237 1363.687 C-300.129 1361.39 -300.043 1359.094 -299.959 1356.796 C-299.592 1348.205 -298.397 1340.52 -295.872 1332.289 C-294.627 1327.594 -294.22 1322.816 -295 1318 C-296.768 1315.78 -296.768 1315.78 -299.023 1315.918 C-303.847 1316.339 -303.847 1316.339 -308 1318.562 C-313.761 1322.703 -325.15 1319.251 -331.688 1318.188 C-332.789 1318.022 -333.891 1317.856 -335.025 1317.686 C-343.698 1316.299 -349.817 1314.29 -355.602 1307.445 C-357.753 1303.684 -357.647 1300.108 -357.793 1295.852 C-358.118 1291.379 -359.003 1289.372 -362 1286 C-365.084 1284.827 -367.731 1284.626 -371 1285 C-373.55 1286.22 -374.92 1287.183 -377 1289 C-379.797 1291.293 -382.598 1293.58 -385.398 1295.867 C-386.856 1297.062 -388.307 1298.268 -389.727 1299.508 C-392.543 1301.758 -394.759 1302.251 -398.25 1302.062 C-402.747 1301.318 -406.408 1299.538 -410.398 1297.395 C-417.984 1293.328 -425.991 1290.124 -434 1287 C-435.391 1286.446 -436.781 1285.891 -438.172 1285.336 C-454.168 1278.983 -470.318 1273.966 -487.355 1271.293 C-495.714 1269.966 -501.988 1267.918 -509 1263 C-510.659 1261.987 -512.326 1260.987 -514 1260 C-515.243 1259.254 -515.243 1259.254 -516.512 1258.492 C-518.138 1257.517 -519.766 1256.543 -521.395 1255.57 C-523.036 1254.589 -524.676 1253.603 -526.312 1252.613 C-528.219 1251.469 -530.137 1250.343 -532.062 1249.23 C-539.351 1244.929 -545.639 1240.162 -551.996 1234.609 C-555.876 1231.239 -559.902 1228.099 -564 1225 C-564.594 1224.548 -565.189 1224.095 -565.801 1223.629 C-568.992 1221.217 -572.211 1218.844 -575.449 1216.496 C-583.171 1210.889 -590.667 1205.114 -598 1199 C-599.833 1197.52 -601.666 1196.041 -603.5 1194.562 C-608.29 1190.647 -612.874 1186.544 -617.426 1182.355 C-620.287 1179.737 -623.203 1177.191 -626.148 1174.668 C-630.78 1170.496 -634.858 1165.937 -638.875 1161.188 C-642.155 1157.321 -645.449 1153.489 -648.875 1149.75 C-651.896 1146.321 -654.116 1142.621 -656.383 1138.664 C-658.788 1134.702 -661.571 1131.043 -664.363 1127.348 C-666.714 1123.975 -667.138 1121.384 -667.125 1117.375 C-667.122 1116.491 -667.12 1115.606 -667.117 1114.695 C-666.977 1111.466 -666.48 1108.366 -665.828 1105.203 C-666.112 1101.565 -667.676 1099.771 -670 1097 C-672.657 1095.148 -675.467 1093.729 -678.375 1092.312 C-679.118 1091.935 -679.86 1091.558 -680.625 1091.17 C-682.743 1090.098 -684.87 1089.047 -687 1088 C-689 1087 -691 1086 -693 1085 C-693 1084.34 -693 1083.68 -693 1083 C-693.589 1082.763 -694.178 1082.526 -694.785 1082.281 C-703.673 1077.14 -708.168 1062.996 -712 1054 C-712.618 1052.767 -713.243 1051.538 -713.875 1050.312 C-716.109 1045.929 -717.929 1041.398 -719.754 1036.832 C-720.922 1033.996 -720.922 1033.996 -722.527 1031.539 C-724.225 1028.612 -725.08 1025.816 -726 1022.562 C-727.275 1018.064 -728.892 1014.166 -731 1010 C-733.656 1002.588 -735.564 994.946 -737.427 987.304 C-738.895 981.317 -740.537 975.386 -742.21 969.453 C-743.43 965.11 -744.57 960.761 -745.625 956.375 C-746.435 953.037 -747.36 949.88 -748.625 946.688 C-751.031 940.235 -751.182 933.803 -751.188 927 C-751.2 926.232 -751.212 925.463 -751.225 924.672 C-751.24 918.783 -750.724 913.587 -747.375 908.562 C-745.402 904.886 -744.813 901.971 -746 898 C-748.063 895.03 -750.304 892.384 -752.738 889.711 C-769.164 870.022 -765.397 835.797 -765 812 C-764.981 810.796 -764.961 809.593 -764.941 808.353 C-764.7 795.96 -763.991 783.898 -761.549 771.736 C-760.872 768.364 -760.225 764.987 -759.574 761.609 C-759.052 758.927 -758.527 756.244 -758 753.562 C-757.751 752.294 -757.502 751.025 -757.245 749.718 C-755.936 743.195 -754.463 736.781 -752.652 730.379 C-751.797 727.26 -751.172 724.113 -750.562 720.938 C-749.126 714.087 -746.834 708.055 -743.961 701.703 C-741.631 696.545 -739.679 691.405 -738 686 C-737.648 684.898 -737.648 684.898 -737.289 683.773 C-735.887 679.267 -734.677 674.738 -733.568 670.15 C-729.484 653.288 -724.802 641.935 -709.426 632.551 C-706.942 631.085 -706.942 631.085 -705 629 C-705 621.244 -711.113 615.081 -715.688 609.312 C-719.499 604.464 -722.569 600.384 -722 594 C-720.863 591.605 -720.863 591.605 -719.312 589.188 C-718.762 588.315 -718.212 587.442 -717.645 586.543 C-717.102 585.704 -716.559 584.865 -716 584 C-715.165 582.668 -714.331 581.335 -713.5 580 C-713.097 579.357 -712.693 578.714 -712.277 578.051 C-708.677 572.27 -705.213 566.443 -702 560.438 C-699.666 556.101 -697.084 552.045 -694.305 547.984 C-692.627 545.433 -691.341 542.741 -690 540 C-687.508 535.774 -684.803 531.692 -682.062 527.625 C-676.477 519.247 -671.83 510.76 -667.664 501.609 C-666.282 498.611 -664.833 495.679 -663.312 492.75 C-661.121 488.439 -659.493 484.023 -657.902 479.461 C-656.823 476.517 -655.401 473.802 -654 471 C-653.235 468.761 -652.523 466.513 -651.844 464.246 C-651 462 -651 462 -649.531 459.594 C-647.881 456.798 -646.957 454.16 -646 451.062 C-644.632 446.799 -643.002 443.004 -641 439 C-640.381 437.109 -639.779 435.212 -639.188 433.312 C-635.127 421.147 -629.907 414.484 -619.583 407.161 C-615.817 404.4 -612.393 401.201 -609 398 C-608.176 397.237 -607.353 396.474 -606.504 395.688 C-603.803 392.788 -601.84 389.758 -599.938 386.312 C-599.592 385.7 -599.246 385.087 -598.89 384.455 C-596.488 380.115 -594.602 375.703 -592.855 371.059 C-591.339 367.41 -589.484 364.83 -586.023 362.895 C-581.544 361.569 -577.211 361.662 -572.562 361.688 C-571.582 361.69 -570.602 361.693 -569.591 361.696 C-561.7 361.809 -554.618 362.878 -547 365 C-545.376 365.399 -543.751 365.795 -542.125 366.188 C-541.094 366.456 -540.062 366.724 -539 367 C-536.934 364.19 -536.011 362.526 -535.938 359 C-537.674 354.096 -541.011 351.999 -545.48 349.754 C-546.353 349.34 -547.226 348.926 -548.125 348.5 C-555.031 345.125 -555.031 345.125 -557 341 C-557.306 336.539 -556.454 332.968 -554.562 328.938 C-548.616 322.121 -540.845 317.056 -533.523 311.816 C-532.033 310.743 -530.553 309.653 -529.102 308.527 C-525.174 305.512 -521.237 303.838 -516.617 302.09 C-505.98 297.66 -496.784 290.077 -489.688 281.062 C-487.204 278.039 -484.393 275.83 -481.211 273.57 C-479.707 272.502 -478.233 271.39 -476.789 270.242 C-466.992 262.724 -455.341 260.266 -443.567 257.444 C-438.353 256.165 -433.781 254.395 -429 252 C-416.781 246.196 -416.781 246.196 -410.562 244.062 C-406.166 242.548 -402.157 240.553 -398.062 238.375 C-392.661 235.531 -387.758 234.204 -381.715 233.434 C-376.155 232.546 -371.489 229.838 -366.625 227.102 C-358.044 222.389 -350.163 219.789 -340.446 218.367 C-335.208 217.576 -330.954 216.251 -326.177 213.967 C-322.768 212.452 -319.252 211.634 -315.625 210.812 C-310.269 209.567 -310.269 209.567 -305 208 C-303.514 207.887 -302.025 207.822 -300.535 207.789 C-299.659 207.762 -298.782 207.736 -297.879 207.708 C-296.95 207.681 -296.02 207.653 -295.062 207.625 C-289.033 207.41 -283.438 207.129 -277.625 205.375 C-271.779 203.622 -266.504 204.162 -260.543 204.871 C-255.826 205.043 -251.675 204.413 -248 201.312 C-246.485 197.808 -246.979 195.638 -248 192 C-250.081 189.49 -252.301 187.553 -254.852 185.535 C-259.7 181.614 -259.7 181.614 -261.25 178.438 C-260.867 174.708 -258.747 173.448 -256 171 C-252.712 167.972 -251.045 165.901 -250.812 161.25 C-251.873 155.874 -255.08 151.537 -258 147 C-261.597 140.426 -262.164 134.998 -262.125 127.562 C-262.129 126.825 -262.133 126.087 -262.137 125.326 C-262.129 121.09 -261.714 117.183 -261 113 C-260.946 111.08 -260.893 109.161 -260.863 107.24 C-260.667 99.202 -259.192 94.207 -254 88 C-252.961 86.491 -251.94 84.97 -250.938 83.438 C-250.445 82.694 -249.953 81.95 -249.445 81.184 C-248.73 80.103 -248.73 80.103 -248 79 C-247.316 77.996 -247.316 77.996 -246.617 76.973 C-241.925 69.878 -239.328 63.522 -240.48 54.945 C-240.969 52.699 -240.969 52.699 -243 50 C-250.415 47.528 -256.277 49.729 -263 53 C-264.931 54.136 -266.793 55.341 -268.66 56.578 C-272.846 59.122 -277.314 61.146 -281.73 63.254 C-285.022 64.878 -285.022 64.878 -287.648 67.152 C-291.216 69.955 -294.538 70.326 -299 70 C-302 68.437 -302 68.437 -305 66 C-317.12 57.403 -328.993 52.469 -343.625 50.125 C-350.395 48.952 -357.063 47.684 -363.625 45.625 C-365.346 45.087 -365.346 45.087 -367.102 44.539 C-373.404 41.192 -375.696 33.697 -378.633 27.512 C-379.752 24.886 -379.752 24.886 -382 24 C-387.705 23.508 -390.965 24.157 -395.93 26.922 C-398.795 28.414 -401.765 29.315 -404.844 30.27 C-407.286 31.045 -407.286 31.045 -410.562 32.75 C-416.352 34.855 -419.937 33.884 -425.41 31.539 C-431.521 28.649 -437.119 25.718 -442 21 C-442.463 14.049 -439.426 9.198 -435 4 C-429.785 -1.036 -423.781 -3.662 -417 -6 C-416.127 -6.343 -415.254 -6.685 -414.354 -7.038 C-410.456 -8.156 -406.853 -8.298 -402.836 -8.246 C-402.053 -8.241 -401.269 -8.235 -400.462 -8.229 C-392.306 -8.102 -384.249 -7.269 -376.15 -6.348 C-362.541 -4.81 -349.061 -3.674 -335.365 -3.364 C-325.726 -3.112 -316.163 -2.361 -306.562 -1.5 C-305.817 -1.434 -305.071 -1.368 -304.302 -1.3 C-291.846 -0.187 -291.846 -0.187 -286 1 C-276.32 1.489 -266.683 -0.1 -257.094 -1.291 C-244.753 -2.812 -232.612 -3.855 -220.192 -2.497 C-214.935 -1.942 -209.736 -1.855 -204.453 -1.867 C-203.479 -1.866 -202.506 -1.865 -201.503 -1.864 C-199.456 -1.864 -197.408 -1.865 -195.361 -1.87 C-192.272 -1.875 -189.183 -1.87 -186.094 -1.863 C-176.824 -1.86 -167.646 -1.978 -158.403 -2.759 C-154.418 -3.041 -150.447 -3.142 -146.453 -3.211 C-145.712 -3.224 -144.971 -3.237 -144.207 -3.251 C-142.676 -3.278 -141.145 -3.305 -139.613 -3.331 C-122.251 -3.652 -105.31 -5.074 -88.113 -7.562 C-81.304 -8.404 -74.405 -8.396 -67.555 -8.605 C-60.67 -8.82 -60.67 -8.82 -53.824 -9.52 C-34.868 -11.901 -16.321 -10.438 0 0 Z M-267 263 C-267.953 264.402 -267.953 264.402 -268.926 265.832 C-274.365 273.451 -278.863 275.707 -288.166 277.315 C-293.275 278.061 -298.39 278.763 -303.506 279.458 C-316.493 281.473 -327.807 286.605 -339.184 292.961 C-343.195 295.172 -347.316 296.669 -351.656 298.113 C-354.721 299.273 -357.268 300.913 -359.992 302.711 C-365.783 306.429 -371.699 309.003 -378.312 310.875 C-387.215 313.483 -395.09 317.783 -402.562 323.25 C-408.247 327.408 -414.451 330.599 -420.694 333.829 C-425.81 336.543 -430.064 339.513 -434.304 343.467 C-439.042 347.75 -443.55 347.369 -449.576 347.479 C-454.399 347.652 -457.88 348.234 -462 351 C-467.125 357.359 -469.507 364.267 -471.215 372.129 C-475.448 387.61 -490.882 400.331 -501.59 411.766 C-505.553 416.065 -508.94 420.233 -511.902 425.273 C-513.572 427.899 -515.754 429.858 -518 432 C-520.034 434.253 -522.036 436.532 -524.035 438.816 C-525.958 440.953 -527.96 442.976 -530 445 C-535.186 450.464 -539.081 456.59 -543 463 C-543.494 463.781 -543.987 464.562 -544.496 465.367 C-548.088 471.149 -551.13 477.135 -554.021 483.292 C-556.173 487.756 -558.688 491.265 -562 495 C-563.523 496.852 -565.044 498.706 -566.562 500.562 C-567.306 501.471 -568.05 502.38 -568.816 503.316 C-577.897 514.477 -582.734 525.166 -587.247 538.743 C-590.218 547.643 -593.696 556.339 -597.209 565.034 C-598.005 567.013 -598.793 568.994 -599.578 570.977 C-602.669 578.775 -605.891 586.478 -609.438 594.082 C-612.145 599.896 -614.736 605.709 -617.078 611.68 C-620.256 619.678 -624.12 627.324 -628 635 C-628.73 636.479 -629.459 637.958 -630.188 639.438 C-632.901 644.771 -635.092 648.379 -639.875 652.062 C-645.007 656.129 -649.819 660.436 -654.583 664.926 C-656.766 666.975 -658.877 668.916 -661.352 670.609 C-663.456 672.062 -663.456 672.062 -663.438 675.875 C-663.25 679.708 -662.02 681.736 -660 685 C-659.418 687.54 -658.985 690.089 -658.539 692.656 C-658.107 695.148 -658.107 695.148 -656.375 697.5 C-652.867 703.879 -655.314 712.748 -656.407 719.596 C-659.369 738.37 -659.516 756.871 -659.333 775.836 C-659.305 779.165 -659.297 782.493 -659.289 785.822 C-659.279 789.877 -659.26 793.933 -659.238 797.988 C-659.235 798.728 -659.231 799.468 -659.228 800.23 C-659.184 808.202 -659.007 816.156 -658.578 824.118 C-658.526 825.146 -658.526 825.146 -658.474 826.195 C-658.138 831.809 -656.998 837.093 -655.713 842.551 C-654.454 848.64 -654.142 854.808 -653.688 861 C-652.769 872.333 -651.256 883.417 -649 894.562 C-648.751 895.81 -648.502 897.057 -648.245 898.342 C-646.997 904.266 -645.486 909.499 -643 915 C-640.869 925.189 -645.365 932.535 -650.043 941.15 C-652.167 945.255 -653.529 949.633 -655 954 C-655.336 954.866 -655.673 955.732 -656.02 956.625 C-659.369 965.255 -662.35 974.657 -662 984 C-654.719 984.993 -649.093 981.773 -643 978 C-641.121 976.335 -641.121 976.335 -639.625 974.625 C-637 972 -637 972 -634.125 971.188 C-626.535 973.161 -621.72 980.129 -617.531 986.375 C-615.572 989.734 -614.17 993.162 -612.84 996.809 C-611.845 999.403 -610.457 1001.641 -609 1004 C-605.945 1013.526 -608.026 1023.148 -612 1032 C-607.765 1035.896 -603.507 1037.459 -598.188 1039.312 C-587.763 1043.174 -581.153 1047.956 -576 1058 C-575.021 1060.16 -574.088 1062.336 -573.156 1064.516 C-567.08 1077.571 -558.824 1090.466 -547.613 1099.641 C-544.593 1102.186 -542.459 1104.704 -540.375 1108.062 C-534.931 1116.385 -527.797 1123.356 -520.68 1130.246 C-518.38 1132.609 -516.28 1135.041 -514.209 1137.604 C-509.551 1143.35 -504.744 1148.202 -498.879 1152.758 C-496.256 1154.801 -493.73 1156.914 -491.211 1159.082 C-484.689 1164.693 -477.959 1169.936 -471 1175 C-470.42 1175.427 -469.841 1175.855 -469.244 1176.295 C-460.541 1182.803 -460.541 1182.803 -451.043 1188.02 C-448.331 1189.321 -445.778 1190.846 -443.188 1192.375 C-436.241 1196.466 -429.23 1200.429 -422 1204 C-414.852 1207.53 -407.92 1211.439 -401.062 1215.5 C-383.862 1225.569 -360.71 1238.697 -340.465 1239.239 C-326.083 1239.67 -315.915 1242.225 -305 1252 C-301.448 1255.069 -299.15 1257 -294.25 1257 C-291.004 1256.001 -290.043 1255.556 -288 1253 C-286.422 1248.294 -286.643 1244.079 -288.625 1239.562 C-289.411 1238.039 -290.203 1236.518 -291 1235 C-291.329 1234.196 -291.657 1233.391 -291.996 1232.562 C-294.375 1226.985 -297.127 1223.818 -301.812 1219.938 C-306.728 1215.665 -306.728 1215.665 -307.887 1212.828 C-308.135 1208.143 -306.326 1204.278 -304.512 1200.039 C-301.842 1193.191 -301.107 1186.985 -300.812 1179.688 C-300.674 1177.24 -300.535 1174.792 -300.395 1172.344 C-300.331 1171.123 -300.267 1169.902 -300.202 1168.645 C-299.888 1162.985 -299.456 1157.337 -299 1151.688 C-298.929 1150.711 -298.858 1149.734 -298.784 1148.727 C-298.371 1143.553 -297.498 1138.991 -296 1134 C-295.157 1128.242 -294.749 1122.533 -294.5 1116.723 C-294.46 1115.823 -294.42 1114.924 -294.378 1113.997 C-294.248 1111.019 -294.124 1108.041 -294 1105.062 C-293.933 1103.516 -293.933 1103.516 -293.865 1101.937 C-293.307 1088.911 -292.93 1075.894 -292.789 1062.855 C-292.774 1061.594 -292.759 1060.334 -292.743 1059.034 C-292.672 1052.887 -292.622 1046.741 -292.605 1040.594 C-292.512 1027.635 -291.42 1015.68 -288.436 1003.07 C-286.022 991.621 -286.271 978.187 -290 967 C-291.163 957.583 -288.712 949.088 -286.312 940.094 C-284.47 933.138 -283.217 926.087 -282 919 C-276.58 917.87 -273.964 918.426 -269 921 C-267.667 922 -266.333 923 -265 924 C-262.698 925.096 -260.367 926.044 -258 927 C-256.375 925.879 -256.375 925.879 -255 924 C-254.457 920.067 -254.729 918.411 -256.941 915.062 C-257.805 914.033 -258.68 913.013 -259.562 912 C-267.041 902.849 -271.669 892.853 -275.16 881.555 C-275.996 878.803 -275.996 878.803 -277.688 875.625 C-280.619 869.763 -280.673 862.672 -279.505 856.297 C-278.979 852.863 -278.841 849.59 -278.789 846.117 C-278.761 844.77 -278.732 843.422 -278.703 842.074 C-278.663 840 -278.626 837.926 -278.599 835.851 C-278.496 828.53 -278.155 821.402 -276.913 814.176 C-274.969 802.826 -274.559 791.758 -274.559 780.266 C-274.547 778.331 -274.533 776.396 -274.519 774.461 C-274.483 769.41 -274.462 764.359 -274.447 759.308 C-274.419 750.314 -274.373 741.321 -274.309 732.328 C-274.302 731.365 -274.295 730.401 -274.288 729.409 C-273.958 687.089 -273.958 687.089 -271.502 675.687 C-270.786 671.854 -270.634 668.034 -270.453 664.143 C-270.411 663.267 -270.369 662.391 -270.326 661.488 C-269.903 651.936 -269.818 642.386 -269.77 632.826 C-269.753 629.617 -269.73 626.408 -269.705 623.199 C-269.635 614.092 -269.574 604.985 -269.523 595.878 C-269.491 590.265 -269.45 584.653 -269.403 579.041 C-269.387 576.919 -269.375 574.797 -269.366 572.675 C-269.354 569.714 -269.33 566.753 -269.303 563.792 C-269.302 562.93 -269.302 562.068 -269.301 561.18 C-269.221 554.41 -268.827 547.741 -265 542 C-261.727 540.862 -258.467 539.942 -255.117 539.07 C-249.989 537.621 -246.89 535.657 -243 532 C-243.318 528.965 -243.523 527.435 -245.82 525.34 C-246.961 524.646 -246.961 524.646 -248.125 523.938 C-249.347 523.164 -249.347 523.164 -250.594 522.375 C-253.147 520.856 -253.147 520.856 -256.625 519.438 C-262.208 516.313 -264.752 509.69 -267 504 C-268.37 498.075 -267.056 493.77 -264.625 488.312 C-259.435 476.594 -259.799 464.22 -259.688 451.625 C-259.67 450.329 -259.652 449.033 -259.634 447.698 C-259.642 438.043 -260.582 430.551 -266.562 422.75 C-269.514 418.865 -272.115 415.418 -271.875 410.375 C-271.125 407.484 -270.2 404.909 -269.113 402.137 C-266.75 395.686 -265.489 389.191 -264.312 382.438 C-263.994 380.706 -263.994 380.706 -263.67 378.939 C-260.414 360.833 -259.113 343.661 -265 326 C-265.96 319.419 -264.322 314.736 -261.418 308.871 C-260.018 306.037 -258.809 303.18 -257.625 300.25 C-255.685 295.528 -253.566 290.921 -251.375 286.312 C-245.626 275.122 -245.626 275.122 -246 263 C-247.679 260.341 -248.996 259.322 -251.984 258.363 C-258.313 257.174 -262.319 258.671 -267 263 Z M-194 261 C-195.615 263.882 -196.49 266.891 -197.375 270.062 C-197.626 270.929 -197.877 271.796 -198.136 272.689 C-199.773 278.596 -201.122 283.888 -200 290 C-199.877 290.67 -199.754 291.339 -199.628 292.029 C-196.711 306.991 -190.904 318.392 -180.312 329.449 C-177.084 333.264 -177.678 338.297 -178 343 C-178.75 345.938 -178.75 345.938 -180 348 C-181.318 348.696 -182.656 349.355 -184 350 C-188.365 352.615 -192.676 355.317 -197 358 C-197.74 358.447 -198.48 358.895 -199.242 359.355 C-212.318 366.88 -212.318 366.88 -222 378 C-222 382.045 -221.247 383.629 -219 387 C-216.118 388.005 -214.097 388.528 -211.262 387.164 C-210.083 386.427 -208.907 385.685 -207.734 384.938 C-205.052 383.487 -202.964 383.529 -200 384 C-197.586 386.01 -196.242 388.133 -194.875 390.938 C-194.542 391.607 -194.21 392.276 -193.867 392.965 C-190.848 400.052 -191.7 408.167 -191.65 415.732 C-191.633 417.563 -191.606 419.394 -191.568 421.225 C-191.309 433.644 -191.704 444.015 -199.438 454.375 C-201.336 456.916 -201.336 456.916 -200.5 459.875 C-199.016 462.967 -197.513 466.043 -195.902 469.07 C-194.239 472.628 -193.869 475.907 -193.823 479.809 C-193.804 481.237 -193.804 481.237 -193.784 482.693 C-193.777 483.716 -193.769 484.739 -193.762 485.793 C-193.754 486.854 -193.746 487.914 -193.737 489.007 C-193.723 491.252 -193.713 493.497 -193.705 495.742 C-193.693 498.03 -193.673 500.318 -193.643 502.606 C-193.6 505.918 -193.584 509.23 -193.574 512.543 C-193.557 513.556 -193.539 514.569 -193.521 515.612 C-193.541 522.091 -194.439 527.472 -198 533 C-201.05 535.878 -204.279 537.662 -208.062 539.438 C-211.794 541.422 -214.754 543.353 -217 547 C-217.91 550.442 -217.509 552.792 -216 556 C-212.662 559.787 -209.09 563.018 -205 566 C-204.34 566 -203.68 566 -203 566 C-200.307 572.54 -198.604 578.401 -198.25 585.5 C-198.208 586.317 -198.167 587.135 -198.124 587.977 C-197.683 599.808 -198.826 611.736 -200.98 623.367 C-202.531 632.397 -202.916 641.555 -203.5 650.688 C-204.328 663.516 -205.377 676.247 -207 689 C-208.787 703.523 -209.193 717.861 -209.014 732.474 C-208.924 740.826 -209.103 749.125 -209.488 757.469 C-210.166 772.608 -210.157 787.741 -210.129 802.893 C-210.125 805.225 -210.122 807.558 -210.12 809.89 C-210.098 831.224 -209.971 852.542 -209.184 873.864 C-208.997 878.985 -208.836 884.108 -208.676 889.23 C-208.518 894.209 -208.353 899.187 -208.186 904.165 C-208.105 906.6 -208.026 909.035 -207.949 911.469 C-207.575 923.121 -207.101 934.592 -205.47 946.142 C-204.528 953.871 -204.325 961.662 -204 969.438 C-203.405 983.649 -202.672 997.788 -199.906 1011.773 C-198.765 1017.72 -198.559 1023.581 -198.5 1029.625 C-198.459 1030.692 -198.418 1031.76 -198.375 1032.859 C-198.307 1039.766 -199.402 1043.815 -203.705 1049.271 C-205.2 1050.907 -205.2 1050.907 -205 1053 C-205.712 1053.25 -206.423 1053.5 -207.156 1053.758 C-210.298 1055.13 -212.752 1056.829 -215.5 1058.875 C-216.418 1059.553 -217.336 1060.231 -218.281 1060.93 C-220.055 1062.28 -221.811 1063.653 -223.547 1065.051 C-225.132 1066.311 -226.757 1067.524 -228.422 1068.676 C-233.5 1072.214 -233.5 1072.214 -236.25 1077.625 C-235.956 1081.597 -235.62 1082.994 -233 1086 C-231.582 1086.966 -230.141 1087.9 -228.688 1088.812 C-220.64 1093.938 -216.898 1101.524 -213 1110 C-212.534 1110.98 -212.534 1110.98 -212.059 1111.98 C-208.755 1119.21 -208.926 1125.862 -209.312 1133.625 C-209.359 1134.653 -209.405 1135.681 -209.453 1136.74 C-209.721 1142.166 -210.129 1147.535 -210.789 1152.927 C-213.58 1176.019 -213.034 1199.607 -209.335 1222.546 C-208.179 1229.741 -207.675 1235.025 -210 1242 C-212.506 1243.358 -214.975 1244.572 -217.562 1245.75 C-225.025 1249.301 -231.324 1252.986 -236 1260 C-236.213 1261.96 -236.213 1261.96 -235.938 1264 C-235.885 1264.681 -235.832 1265.361 -235.777 1266.062 C-234.558 1269.102 -232.975 1269.718 -230 1271 C-227.11 1271.327 -224.511 1271.474 -221.625 1271.438 C-220.798 1271.433 -219.97 1271.428 -219.118 1271.423 C-211.682 1271.253 -204.509 1270.12 -197.237 1268.599 C-177.57 1264.639 -157.134 1264.556 -137.15 1263.896 C-123.046 1263.42 -109.529 1262.926 -96.062 1258.312 C-95.298 1258.055 -94.534 1257.797 -93.746 1257.532 C-87.737 1255.427 -82.345 1252.75 -76.812 1249.59 C-73.721 1247.843 -70.58 1246.426 -67.32 1245.031 C-62.46 1242.871 -57.744 1240.401 -53 1238 C-51.993 1237.518 -50.986 1237.036 -49.949 1236.539 C-47.076 1235.04 -44.599 1233.366 -42 1231.438 C-35.06 1226.528 -29.083 1225.039 -20.652 1226.371 C-13.761 1227.43 -8.152 1226.409 -2 1223 C1.579 1219.006 2.122 1215.66 2.027 1210.414 C2.015 1209.318 2.003 1208.223 1.99 1207.094 C1.955 1204.789 1.916 1202.484 1.873 1200.18 C1.862 1199.081 1.851 1197.983 1.84 1196.852 C1.815 1195.348 1.815 1195.348 1.789 1193.815 C2.122 1189.374 3.782 1185.996 6.375 1182.438 C6.775 1181.879 7.174 1181.321 7.586 1180.746 C9 1179 9 1179 10.922 1177.082 C18.474 1169.516 24.668 1160.307 30.875 1151.625 C31.471 1150.792 32.066 1149.96 32.68 1149.102 C34.177 1147.131 34.177 1147.131 34 1145 C34.99 1144.67 35.98 1144.34 37 1144 C38.18 1142.584 39.355 1141.163 40.5 1139.719 C42.101 1137.884 43.808 1136.421 45.688 1134.875 C51.171 1130.201 55.537 1124.617 60 1119 C60.495 1118.406 60.99 1117.811 61.5 1117.199 C66.924 1110.294 70.164 1101.407 73.523 1093.344 C74.832 1090.38 76.335 1087.768 78 1085 C78.692 1083.31 79.338 1081.6 79.938 1079.875 C80.278 1078.912 80.618 1077.949 80.969 1076.957 C81.309 1075.981 81.649 1075.005 82 1074 C84.01 1068.319 86.102 1062.753 88.562 1057.25 C91.023 1051.455 92.206 1045.698 93.32 1039.52 C93.885 1036.595 94.579 1033.888 95.5 1031.062 C97.295 1025.499 98.144 1019.786 99.059 1014.027 C99.648 1011.01 100.619 1008.473 101.93 1005.695 C104.313 1000.597 105.515 995.423 106.688 989.938 C107.006 988.525 107.006 988.525 107.33 987.084 C109.536 977.083 110.249 967.33 110.684 957.113 C110.744 955.766 110.805 954.418 110.867 953.071 C111.125 947.391 111.378 941.711 111.622 936.031 C111.773 932.539 111.931 929.048 112.093 925.557 C112.181 923.612 112.261 921.666 112.342 919.721 C112.716 911.7 113.617 903.908 115 896 C115.142 895.167 115.285 894.334 115.432 893.475 C117.467 881.844 121.441 874.313 128.609 864.883 C130.799 860.343 131.387 855.573 132.188 850.625 C132.365 849.609 132.542 848.593 132.725 847.547 C134.241 838.528 134.125 831.356 131.688 822.562 C131.474 821.755 131.261 820.947 131.041 820.115 C129.842 815.603 129.842 815.603 128.263 811.214 C126.283 806.383 125.534 802.045 125.488 796.812 C125.47 795.997 125.452 795.182 125.433 794.342 C125.377 791.561 125.344 788.781 125.312 786 C125.281 783.984 125.25 781.968 125.218 779.952 C125.121 773.084 125.065 766.216 125.017 759.348 C124.999 756.832 124.979 754.317 124.96 751.801 C124.869 740.006 124.807 728.212 124.771 716.417 C124.758 712.388 124.739 708.359 124.716 704.33 C124.688 699.511 124.676 694.692 124.676 689.873 C124.673 688.072 124.666 686.271 124.652 684.47 C124.635 681.979 124.637 679.489 124.644 676.998 C124.634 676.272 124.625 675.546 124.616 674.798 C124.665 668.838 126.614 665.105 129.824 660.23 C137.833 647.151 136.858 631 133.653 616.391 C131.639 608.664 128.526 603.25 123.078 597.297 C117.857 591.526 116.175 584.529 114.004 577.199 C111.846 569.804 111.846 569.804 107.535 563.613 C105.446 561.418 104.621 559.119 103.5 556.312 C103.067 555.232 102.634 554.152 102.188 553.039 C101.796 552.036 101.404 551.033 101 550 C100.732 549.327 100.464 548.654 100.188 547.961 C99.422 545.985 98.706 543.998 98 542 C97.62 540.935 97.239 539.87 96.848 538.773 C94.235 531.229 92.131 523.717 90.381 515.927 C89.394 511.562 88.227 507.378 86.711 503.172 C85.823 500.46 85.205 497.717 84.562 494.938 C83.501 490.548 82.127 486.874 79.969 482.926 C78.911 480.824 78.203 478.744 77.5 476.5 C76.324 472.788 74.817 469.455 73.027 466.004 C70.313 460.709 68.079 455.226 65.937 449.679 C60.03 434.483 52.2 421.383 41.141 409.383 C34.802 402.327 29.796 394.275 24.688 386.312 C24.102 385.404 24.102 385.404 23.505 384.477 C21.658 381.605 19.83 378.725 18.035 375.82 C15.041 370.984 12.212 366.879 8 363 C7.299 362.092 6.597 361.185 5.875 360.25 C0.539 353.747 -6.759 348.845 -13.562 344 C-18.291 340.622 -22.529 336.888 -26.805 332.961 C-29.389 330.652 -32.044 328.81 -35 327 C-36.73 325.898 -38.459 324.793 -40.188 323.688 C-41.628 322.777 -41.628 322.777 -43.098 321.848 C-44.927 320.683 -46.749 319.505 -48.559 318.309 C-58.664 311.679 -69.428 305.794 -80.57 301.09 C-84.086 299.513 -87.502 297.745 -90.938 296 C-96.158 293.356 -101.366 290.943 -106.84 288.859 C-108.981 288.008 -111.01 287.045 -113.062 286 C-113.713 285.67 -114.364 285.34 -115.035 285 C-116.337 284.338 -117.636 283.671 -118.934 283 C-124.401 280.354 -130.028 278.898 -135.911 277.502 C-141.142 276.252 -146.199 274.706 -151.273 272.914 C-153.946 271.972 -153.946 271.972 -156.539 271.398 C-163.289 269.791 -167.867 266.398 -173.141 262.059 C-179.872 257.212 -187.001 256.261 -194 261 Z M-663 984 C-662 987 -662 987 -662 987 Z " fill="#100d0a" fill-rule="evenodd"/>
</svg>